mtllib LOD2.mtl

g LOD2_Texture
usemtl LOD2_Texture

v -2.556726 -1.486248 4.1222
vt 0.9150137 0.5571955
vn -0.5701392 -0.6867043 0.4509749

v -2.746161 -1.621345 -3.088338
vt 0.9186142 0.365021
vn -0.8766988 -0.4807788 0.0158437

v -1.242188 -4.208029 1.639602
vt 0.9875543 0.4910296
vn -0.7076438 -0.6427801 0.2933837

v -1.244092 -4.202791 -2.343118
vt 0.9874149 0.3848827
vn -0.8642973 -0.5029812 -0.0002482897

v -2.746161 0.07887056 -2.343118
vt 0.3821396 0.8929352
vn 0.01776911 0.999806 0.008490611

v -2.400281 -0.04019306 10.95328
vt 0.628177 0.8856039
vn 0.008884989 0.9999515 0.004245509

v 0.8226171 -0.04019306 4.208412
vt 0.5210051 0.8172916
vn 0.008884989 0.9999515 0.004245509

v -0.1790053 -0.04019306 10.9796
vt 0.628735 0.838522
vn 0 1 0

v 0.8226171 -0.04019306 4.208412
vt 0.3749157 0.5536888
vn 0.9383299 0.3456981 0.00546418

v 1.385457 -1.538678 2.358989
vt 0.4148532 0.5043981
vn 0.9414363 0.3371798 0.002732215

v 0.8226171 0.07887455 -3.324549
vt 0.3717423 0.3529211
vn 0.9414363 0.3371798 0.002732215

v 1.385457 -1.538678 -3.324549
vt 0.4148532 0.3529211
vn 0.9444583 0.3286313 0

v -0.1790053 -0.04019306 10.9796
vt 0.3749157 0.7341541
vn 0.975159 -0.168098 0.1442495

v -0.1790053 -1.486248 9.294477
vt 0.4134559 0.6892421
vn 0.9522467 -0.2862898 0.1061333

v 0.8226171 -0.04019306 4.208412
vt 0.3749157 0.5536888
vn 0.9522467 -0.2862898 0.1061333

v 0.0797253 -1.756442 4.099225
vt 0.4206571 0.5507787
vn 0.9141489 -0.3999161 0.06632463

v 1.385457 -1.538678 2.358989
vt 0.4148532 0.5043981
vn 0.7659879 -0.3652209 0.5290333

v 0.8226171 -0.04019306 4.208412
vt 0.3749157 0.5536888
vn 0.7659879 -0.3652209 0.5290333

v 0.0797253 -1.756442 4.099225
vt 0.4206571 0.5507787
vn 0.7659879 -0.3652209 0.5290333

v 1.385457 -1.538678 -3.324549
vt 0.4148532 0.3529211
vn 0.7117084 -0.702475 2.14209E-08

v 1.385457 -1.538678 2.358989
vt 0.4148532 0.5043981
vn 0.7122654 -0.7019099 -0.0006316382

v -1.244092 -4.202791 -2.343118
vt 0.4858571 0.3790782
vn 0.7122654 -0.7019099 -0.0006316382

v -1.242188 -4.208029 1.639602
vt 0.4859965 0.4852252
vn 0.7128217 -0.7013441 -0.001263291

v 1.385457 -1.538678 2.358989
vt 0.4148532 0.5043981
vn 0.6102011 -0.7004349 0.3701968

v 0.0797253 -1.756442 4.099225
vt 0.4206571 0.5507787
vn 0.6102011 -0.7004349 0.3701968

v -1.242188 -4.208029 1.639602
vt 0.4859965 0.4852252
vn 0.6102011 -0.7004349 0.3701968

v -0.1790053 -0.04019306 10.9796
vt 0.7066953 0.8340572
vn -0.00771826 -0.7588647 0.6512026

v -2.400281 -0.04019306 10.95328
vt 0.7059979 0.8929095
vn -0.007818268 -0.75893 0.6511253

v -0.1790053 -1.486248 9.294477
vt 0.6620482 0.8340572
vn -0.007818268 -0.75893 0.6511253

v -2.400281 -1.486248 9.26746
vt 0.6613323 0.8929095
vn -0.007918273 -0.7589952 0.6510481

v 0.0797253 -1.756442 4.099225
vt 0.5244006 0.8272021
vn -0.1014369 -0.9937485 0.04663105

v -0.1790053 -1.486248 9.294477
vt 0.6620482 0.8340572
vn -0.05079791 -0.9984359 0.02335205

v -2.556726 -1.486248 4.1222
vt 0.5250092 0.8970546
vn -0.05079791 -0.9984359 0.02335205

v -2.400281 -1.486248 9.26746
vt 0.6613323 0.8929095
vn 0 -1 0

v 1.385457 -1.538678 -3.324549
vt 0.3613595 0.7959613
vn -0.04835488 -0.3029032 -0.9517938

v -1.244092 -4.202791 -2.343118
vt 0.3821616 0.8516969
vn -0.04835488 -0.3029032 -0.9517938

v -2.746161 -1.621345 -3.088338
vt 0.3663661 0.8835346
vn -0.04835488 -0.3029032 -0.9517938

v 0.4580766 -0.4748636 -6.330277
vt 0.2850057 0.8229798
vn 1.874329E-07 -1.870759E-06 -1

v 0.4580764 -1.538678 -6.330275
vt 0.2923417 0.8239602
vn 5.944301E-07 -9.353795E-07 -1

v -1.199174 -0.4748636 -6.330277
vt 0.2850056 0.858602
vn 5.944301E-07 -9.353795E-07 -1

v -1.199174 -1.526837 -6.330277
vt 0.2923416 0.8590871
vn 1.001427E-06 0 -1

v -2.746161 -1.621345 -3.088338
vt 0.3663661 0.8835346
vn 0.0188488 -0.9996194 -0.02014638

v -1.199174 -1.526837 -6.330277
vt 0.2923416 0.8590871
vn 0.005852607 -0.9999426 -0.008972202

v 1.385457 -1.538678 -3.324549
vt 0.3613595 0.7959613
vn 0.005852607 -0.9999426 -0.008972202

v 0.4580764 -1.538678 -6.330275
vt 0.2923417 0.8239602
vn -0.007145299 -0.999972 0.002204611

v -2.746161 0.07887056 -2.343118
vt 0.8733003 0.3848827
vn -0.9115514 0.1650669 -0.3765993

v -1.199174 -0.4748636 -6.330277
vt 0.8880584 0.2786172
vn -0.910482 0.08284756 -0.4051652

v -2.746161 -1.621345 -3.088338
vt 0.9186142 0.365021
vn -0.910482 0.08284756 -0.4051652

v -1.199174 -1.526837 -6.330277
vt 0.9160955 0.2786172
vn -0.9025137 4.141375E-07 -0.430661

v -2.746161 0.07887056 -2.343118
vt 0.3821396 0.8929352
vn -0.04221042 0.9872489 -0.1534859

v 0.8226171 0.07887455 -3.324549
vt 0.3613375 0.8172918
vn -0.02111199 0.9856654 -0.1673859

v -1.199174 -0.4748636 -6.330277
vt 0.2923195 0.8601454
vn -0.02111199 0.9856654 -0.1673859

v 0.4580766 -0.4748636 -6.330277
vt 0.2923195 0.8250186
vn -2.677613E-08 0.9834502 -0.1811787

v 0.8226171 0.07887455 -3.324549
vt 0.3613375 0.8172918
vn 0.004345086 0.9998657 0.01580409

v -2.746161 0.07887056 -2.343118
vt 0.3821396 0.8929352
vn 0.004345086 0.9998657 0.01580409

v 0.8226171 -0.04019306 4.208412
vt 0.5210051 0.8172916
vn 0.004345086 0.9998657 0.01580409

v -2.556726 -1.486248 4.1222
vt 0.5250092 0.8970546
vn -0.5701392 -0.6867043 0.4509749

v -1.242188 -4.208029 1.639602
vt 0.4592332 0.8622261
vn -0.7076438 -0.6427801 0.2933837

v 0.0797253 -1.756442 4.099225
vt 0.5244006 0.8272021
vn -0.06435244 -0.6892889 0.7216229

v -2.400281 -0.04019306 10.95328
vt 0.8764735 0.7392567
vn -0.9992191 -0.02998944 0.0257242

v -2.746161 0.07887056 -2.343118
vt 0.8733003 0.3848827
vn -0.9995446 -0.01234497 0.0275341

v -2.400281 -1.486248 9.26746
vt 0.9150137 0.6943265
vn -0.9995253 -0.01271466 0.02806198

v -2.556726 -1.486248 4.1222
vt 0.9150137 0.5571955
vn -0.9995894 -0.003520975 0.02843583

v -2.746161 -1.621345 -3.088338
vt 0.9186142 0.365021
vn -0.999582 -0.01160569 0.02647846

v 0.8226171 0.07887455 -3.324549
vt 0.3717423 0.3529211
vn 0.9303062 0.323707 -0.1724651

v 1.385457 -1.538678 -3.324549
vt 0.4148532 0.3529211
vn 0.9574481 0.1643454 -0.2372421

v 0.4580766 -0.4748636 -6.330277
vt 0.3865006 0.2728127
vn 0.9574481 0.1643454 -0.2372421

v 0.4580764 -1.538678 -6.330275
vt 0.4148532 0.2728128
vn 0.9555516 -6.711883E-07 -0.2948239

# 68 vertice(s).

f 1/1/1 2/2/2 3/3/3
f 2/2/2 4/4/4 3/3/3
f 5/5/5 6/6/6 7/7/7
f 7/7/7 6/6/6 8/8/8
f 9/9/9 10/10/10 11/11/11
f 10/10/10 12/12/12 11/11/11
f 13/13/13 14/14/14 15/15/15
f 16/16/16 15/15/15 14/14/14
f 17/17/17 18/18/18 19/19/19
f 20/20/20 21/21/21 22/22/22
f 21/21/21 23/23/23 22/22/22
f 24/24/24 25/25/25 26/26/26
f 27/27/27 28/28/28 29/29/29
f 29/29/29 28/28/28 30/30/30
f 31/31/31 32/32/32 33/33/33
f 32/32/32 34/34/34 33/33/33
f 35/35/35 36/36/36 37/37/37
f 38/38/38 39/39/39 40/40/40
f 39/39/39 41/41/41 40/40/40
f 42/42/42 43/43/43 44/44/44
f 44/44/44 43/43/43 45/45/45
f 46/46/46 47/47/47 48/48/48
f 47/47/47 49/49/49 48/48/48
f 50/50/50 51/51/51 52/52/52
f 52/52/52 51/51/51 53/53/53
f 54/54/54 55/55/55 56/56/56
f 57/57/57 58/58/58 59/59/59
f 60/60/60 61/61/61 62/62/62
f 62/62/62 61/61/61 63/63/63
f 61/61/61 64/64/64 63/63/63
f 65/65/65 66/66/66 67/67/67
f 67/67/67 66/66/66 68/68/68
# 96 indices; 32 primitives.

# 1 primitive groups.

# 1 parts.

