mtllib LOD2.mtl

g FrontUVLOD2
usemtl FrontUVLOD2

v -8.670674 -2.090004 -12.22215
vt 0.01421371 0.2949026
vn -0.4875172 0.8695662 -0.0786232

v -6.799179 -0.728396 -8.767429
vt 0.0500613 0.3610763
vn -0.4875172 0.8695662 -0.0786232

v -8.386084 -2.124758 -14.37119
vt 0.01966487 0.2537386
vn -0.4875172 0.8695662 -0.0786232

v -9.049474 -0.7348918 -6.582024
vt 0.6514142 0.4005809
vn -0.4127396 -0.9020632 -0.1262065

v -6.799179 -0.728396 -8.767429
vt 0.6945177 0.3587206
vn -0.327739 -0.8533212 -0.4054998

v -4.003478 -3.128199 -5.976942
vt 0.748068 0.412171
vn -0.368738 -0.8877627 -0.2755174

v -3.366537 -2.045012 -8.516928
vt 0.7602683 0.3635188
vn -0.2942808 -0.8502691 -0.4363959

v 9.049475 -0.734892 -6.582024
vt 0.9980915 0.4005809
vn 0.4127395 -0.9020633 -0.1262066

v 4.003478 -3.128199 -5.976941
vt 0.9014378 0.4121711
vn 0.3687379 -0.8877627 -0.2755175

v 6.799179 -0.7283954 -8.767429
vt 0.9549881 0.3587206
vn 0.3277389 -0.8533212 -0.4054998

v 3.366537 -2.045012 -8.516929
vt 0.8892375 0.3635188
vn 0.2942809 -0.8502691 -0.4363956

v 6.553248 -0.6731716 4.872173
vt 0.9502773 0.619981
vn 0.3973841 -0.8974295 0.1915884

v 3.998285 -3.127313 -1.324011
vt 0.9013383 0.5012959
vn 0.4149624 -0.904699 0.09657236

v 9.037738 -0.7350261 0.09692118
vt 0.9978667 0.5285132
vn 0.4025582 -0.9095175 0.1035613

v -3.998284 -3.127313 -1.324012
vt 0.7481676 0.5012959
vn -7.31343E-09 -0.9958541 0.09096619

v 3.998285 -3.127313 -1.324011
vt 0.9013383 0.5012959
vn -1.13583E-08 -0.9958541 0.09096619

v -1.976392 -2.317373 7.542822
vt 0.786896 0.6711361
vn -1.13583E-08 -0.9958541 0.09096619

v 1.970967 -2.317373 7.542823
vt 0.862506 0.6711361
vn -1.540317E-08 -0.9958541 0.09096619

v -2.492303 0.8451404 16.93478
vt 0.1325576 0.8533906
vn 0.2927794 0.7017191 0.6495156

v -2.492303 -1.117524 19.97438
vt 0.1325576 0.9116127
vn 0.9350395 0.2978491 0.1923205

v -1.952631 -1.756835 18.34067
vt 0.1428948 0.8803198
vn 0.5774955 0.4775495 0.6621522

v 4.154516 0.8451408 16.93478
vt 0.2598745 0.8533906
vn 0.8414181 0.5043487 0.1940309

v 4.50965 -1.249438 19.52678
vt 0.2666769 0.9030392
vn 0.8788855 0.4226765 0.2211445

v 7.018739 -0.6629556 8.434056
vt 0.3147373 0.6905631
vn 0.8430701 0.5295557 0.09382655

v 2.492303 0.8451408 16.93478
vt 0.2280356 0.8533906
vn 3.819935E-08 0.9924763 0.1224365

v 4.154516 0.8451408 16.93478
vt 0.2598745 0.8533906
vn -0.05212938 0.9897347 0.1330711

v 1.563446 2.36371 4.625181
vt 0.2102436 0.6176058
vn -0.03350747 0.9917251 0.1239293

v 4.986619 2.224644 8.066625
vt 0.275813 0.6835251
vn 0.5292718 0.8468458 0.05218754

v -7.088278 -0.9520733 8.473533
vt 0.04452377 0.6913192
vn -0.8193142 0.565581 0.09403411

v -4.154516 0.8451404 16.93478
vt 0.1007186 0.8533906
vn -0.8289872 0.5313216 0.1745787

v -4.986619 1.649745 8.066624
vt 0.08478012 0.6835251
vn -0.5490626 0.8336219 0.06004282

v 2.492303 0.8451408 16.93478
vt 0.2280356 0.8533906
vn -0.2925402 0.8629293 0.4120357

v 1.952637 -1.756835 18.34067
vt 0.2176984 0.8803198
vn -0.3742215 0.4997046 0.7811874

v 2.492304 -1.117524 19.97437
vt 0.2280356 0.9116127
vn -0.9350404 0.2978467 0.1923197

v -4.509645 -1.249438 19.52678
vt 0.09391625 0.9030393
vn -0.8820813 0.4181269 0.2170312

v -2.492303 0.8451404 16.93478
vt 0.1325576 0.8533906
vn -7.86041E-08 0.9924763 0.1224365

v -1.563445 2.36371 4.625181
vt 0.1503495 0.6176058
vn -0.04150798 0.9914988 0.1233173

v -4.154516 0.8451404 16.93478
vt 0.1007186 0.8533906
vn -0.05312602 0.9923725 0.1112411

v 3.581742 3.09079 -1.140646
vt 0.2489032 0.507164
vn -6.550684E-10 0.9998739 -0.01587802

v 3.206479 3.003814 -6.617724
vt 0.2417152 0.402253
vn -2.506794E-09 0.9998739 -0.01587803

v -3.581741 3.09079 -1.140646
vt 0.1116899 0.507164
vn -2.506794E-09 0.9998739 -0.01587803

v -3.206479 3.003814 -6.617723
vt 0.1188779 0.402253
vn -4.35852E-09 0.9998739 -0.01587805

v -3.206479 3.003814 -6.617723
vt 0.1188779 0.402253
vn -0.5798347 0.7964969 -0.1714187

v -6.799179 -0.728396 -8.767429
vt 0.0500613 0.3610763
vn -0.5923862 0.7721096 -0.2300551

v -9.049474 -0.7348918 -6.582024
vt 0.006957976 0.4029368
vn -0.5229191 0.8148498 -0.2501508

v 3.581742 3.09079 -1.140646
vt 0.2489032 0.507164
vn 0.4096682 0.9089119 0.07778832

v 6.553248 -0.6731716 4.872173
vt 0.3058211 0.6223367
vn 0.7493313 0.6617386 0.02459272

v -6.554293 -0.6731715 4.873485
vt 0.6992084 0.6200061
vn -0.3975081 -0.8974102 0.191422

v -3.998284 -3.127313 -1.324012
vt 0.7481676 0.5012959
vn -0.415021 -0.904681 0.09648774

v -1.976392 -2.317373 7.542822
vt 0.786896 0.6711361
vn -0.4227231 -0.8886923 0.1775705

v -1.976392 -2.317373 7.542822
vt 0.786896 0.6711361
vn -0.2633658 -0.9641599 -0.03215722

v -7.088278 -0.9520733 8.473533
vt 0.68898 0.6889635
vn -0.2380562 -0.9711247 -0.01568569

v -6.554293 -0.6731715 4.873485
vt 0.6992084 0.6200061
vn -0.275795 -0.9543315 -0.1148416

v 1.970967 -2.317373 7.542823
vt 0.862506 0.6711361
vn 0.3105552 -0.9505389 0.005583487

v 6.553248 -0.6731716 4.872173
vt 0.9502773 0.619981
vn 0.3173896 -0.9475027 -0.03876105

v 7.018739 -0.6629556 8.434056
vt 0.9591938 0.6882073
vn 0.2733614 -0.9619104 0.001359795

v 6.799179 -0.7283954 -8.767429
vt 0.3105318 0.3610763
vn 0.5924013 0.7720939 -0.230069

v 3.206479 3.003814 -6.617724
vt 0.2417152 0.402253
vn 0.5798347 0.7964969 -0.1714187

v 9.049475 -0.734892 -6.582024
vt 0.3536352 0.4029368
vn 0.5229192 0.8148499 -0.2501508

v 6.799179 -0.7283954 -8.767429
vt 0.3105318 0.3610763
vn 0.5204267 0.8522003 -0.05395076

v 8.670676 -2.090003 -12.22215
vt 0.3463795 0.2949026
vn 0.5442832 0.8358735 -0.07121291

v 6.370004 -0.9543067 -16.47586
vt 0.3023111 0.2134248
vn 0.5442832 0.8358735 -0.07121291

v 8.386084 -2.124758 -14.3712
vt 0.3409282 0.2537386
vn 0.5675226 0.8185992 -0.08839432

v -4.003478 -3.128199 -5.976942
vt 0.748068 0.412171
vn -1.098852E-11 -1 0.0001903097

v 4.003478 -3.128199 -5.976941
vt 0.9014378 0.4121711
vn -9.922422E-12 -1 0.0001903067

v -3.998284 -3.127313 -1.324012
vt 0.7481676 0.5012959
vn -9.922422E-12 -1 0.0001903067

v 3.998285 -3.127313 -1.324011
vt 0.9013383 0.5012959
vn -8.85632E-12 -1 0.0001903036

v -9.037739 -0.7350261 0.096921
vt 0.6516389 0.5285132
vn -0.4025747 -0.9095169 0.1035015

v 4.50965 -1.249438 19.52678
vt 0.9111332 0.9006835
vn 0.1977949 -0.9802178 -0.007085287

v 1.952637 -1.756835 18.34067
vt 0.8621548 0.877964
vn 0.2509196 -0.9677702 0.02145641

v -2.492303 -1.117524 19.97438
vt 0.1325576 0.9116127
vn -0.1726553 0.8274749 0.5342991

v -2.492303 0.8451404 16.93478
vt 0.1325576 0.8533906
vn -0.08677552 0.8067936 0.5844263

v -4.509645 -1.249438 19.52678
vt 0.09391625 0.9030393
vn -0.08677552 0.8067936 0.5844263

v -4.154516 0.8451404 16.93478
vt 0.1007186 0.8533906
vn -5.862125E-07 0.7777895 0.6285249

v 2.492304 -1.117524 19.97437
vt 0.2280356 0.9116127
vn 0.1726548 0.8274747 0.5342996

v 4.50965 -1.249438 19.52678
vt 0.2666769 0.9030392
vn 0.08677514 0.8067933 0.584427

v 2.492303 0.8451408 16.93478
vt 0.2280356 0.8533906
vn 0.08677514 0.8067933 0.584427

v 4.154516 0.8451408 16.93478
vt 0.2598745 0.8533906
vn 3.253504E-07 0.7777889 0.6285256

v -9.037739 -0.7350261 0.096921
vt 0.007182678 0.5308689
vn -0.5504181 0.8320211 0.06914341

v -3.581741 3.09079 -1.140646
vt 0.1116899 0.507164
vn -0.3521207 0.9303813 0.1019895

v 2.777176 1.113022 -16.47586
vt 0.5518424 0.7939835
vn 2.13305E-07 0 -1

v 6.370004 -0.9543067 -16.47586
vt 0.6189134 0.8325764
vn 2.13305E-07 0 -1

v 2.777176 -2.084918 -16.47586
vt 0.5518424 0.8536826
vn 2.13305E-07 0 -1

v -6.369796 -0.954307 -16.48366
vt 0.3810866 0.8325764
vn -9.958957E-08 0 -1

v -2.777175 1.113022 -16.48366
vt 0.4481537 0.7939835
vn -9.958957E-08 0 -1

v -2.777176 -2.084918 -16.48366
vt 0.4481537 0.8536826
vn -9.958957E-08 0 -1

v 9.037738 -0.7350261 0.09692118
vt 0.3534104 0.5308689
vn 0.5504076 0.8320237 0.06919739

v 4.50965 -1.249438 19.52678
vt 0.9111332 0.9006835
vn 0.01863589 -0.9331481 0.3590088

v 2.492304 -1.117524 19.97437
vt 0.8724919 0.9092569
vn 0.01863589 -0.9331481 0.3590088

v 1.952637 -1.756835 18.34067
vt 0.8621548 0.877964
vn 0.01863589 -0.9331481 0.3590088

v -2.855742 1.69327 -15.51612
vt 0.1255961 0.2318081
vn -0.5804046 0.7806727 -0.2316909

v -6.369796 -0.954307 -16.48366
vt 0.05828595 0.2132755
vn -0.5272385 0.8021873 -0.2802057

v 2.855742 1.69327 -15.51613
vt 0.5533091 0.7831513
vn -2.150628E-07 -0.008326321 -0.9999654

v 2.381759 -1.940863 -15.48587
vt 0.5444608 0.8509934
vn -0.005872705 -0.01678879 -0.9998418

v -2.855742 1.69327 -15.51612
vt 0.446687 0.7831513
vn -0.004984856 -0.01759519 -0.9998329

v 8.463864E-08 -2.338839 -15.44783
vt 0.4999981 0.8584229
vn -0.007477004 -0.02222896 -0.999725

v -2.38176 -1.940863 -15.44783
vt 0.4555353 0.8509934
vn -0.003209229 -0.01920781 -0.9998105

v -2.855742 1.69327 -15.51612
vt 0.446687 0.7831513
vn 0.9915904 0.1293832 0.002926892

v -2.38176 -1.940863 -15.44783
vt 0.4555353 0.8509934
vn 0.9814084 0.0659338 -0.1802513

v -2.777175 1.113022 -16.48366
vt 0.4481537 0.7939835
vn 0.9814084 0.0659338 -0.1802513

v -2.777176 -2.084918 -16.48366
vt 0.4481537 0.8536826
vn 0.934243 -2.016199E-07 -0.356637

v 2.855742 1.69327 -15.51613
vt 0.5533091 0.7831513
vn -0.9915941 0.1293536 0.002968062

v 2.777176 1.113022 -16.47586
vt 0.5518424 0.7939835
vn -0.9799898 0.06601457 -0.187782

v 2.381759 -1.940863 -15.48587
vt 0.5444608 0.8509934
vn -0.9799898 0.06601457 -0.187782

v 2.777176 -2.084918 -16.47586
vt 0.5518424 0.8536826
vn -0.9286645 -1.580389E-07 -0.3709208

v 2.855742 1.69327 -15.51613
vt 0.234997 0.2318081
vn 0.5803111 0.7804096 -0.2328092

v 2.777176 1.113022 -16.47586
vt 0.2334921 0.2134248
vn 0.4342464 0.7546799 -0.4918215

v 6.370004 -0.9543067 -16.47586
vt 0.3023111 0.2134248
vn 0.5270286 0.801735 -0.2818896

v -2.777175 1.113022 -16.48366
vt 0.127101 0.2132755
vn -0.4351113 0.75614 -0.4888054

v -4.509645 -1.249438 19.52678
vt 0.7383727 0.9006835
vn -0.01863558 -0.9331484 0.3590081

v -1.952631 -1.756835 18.34067
vt 0.7873511 0.877964
vn -0.01863558 -0.9331484 0.3590081

v -2.492303 -1.117524 19.97438
vt 0.7770139 0.909257
vn -0.01863558 -0.9331484 0.3590081

v -4.509645 -1.249438 19.52678
vt 0.7383727 0.9006835
vn -0.1869341 -0.9822221 0.01718557

v -1.952631 -1.756835 18.34067
vt 0.7873511 0.877964
vn -0.2181443 -0.9753245 0.03399247

v -6.554293 -0.6731715 4.873485
vt 0.05475204 0.6223619
vn -0.719268 0.6926268 0.05405359

v -1.563445 2.36371 4.625181
vt 0.1503495 0.6176058
vn -4.930033E-09 0.9924763 0.1224365

v 1.563446 2.36371 4.625181
vt 0.2102436 0.6176058
vn 7.80549E-08 0.9924763 0.1224365

v -3.206479 3.003814 -6.617723
vt 0.1188779 0.402253
vn -2.980877E-08 0.9893279 -0.1457068

v 3.206479 3.003814 -6.617724
vt 0.2417152 0.402253
vn -5.052094E-08 0.9893279 -0.1457068

v -2.855742 1.69327 -15.51612
vt 0.1255961 0.2318081
vn -5.052094E-08 0.9893279 -0.1457068

v 2.855742 1.69327 -15.51613
vt 0.234997 0.2318081
vn -7.12331E-08 0.9893279 -0.1457068

v 3.366537 -2.045012 -8.516929
vt 0.8892375 0.3635188
vn -3.195095E-09 -0.9998884 -0.01494313

v -3.366537 -2.045012 -8.516928
vt 0.7602683 0.3635188
vn 0.0002648183 -0.9997314 0.02317426

v 2.381759 -1.940863 -15.48587
vt 0.8703745 0.2300318
vn 0.08322208 -0.9950791 0.05377408

v 8.463864E-08 -2.338839 -15.44783
vt 0.8247529 0.2307605
vn 0.0003993668 -0.9990943 0.04254923

v -2.38176 -1.940863 -15.44783
vt 0.7791313 0.2307605
vn -0.1646877 -0.9856054 -0.03821012

v -4.003478 -3.128199 -5.976942
vt 0.748068 0.412171
vn 2.934344E-08 -0.9198489 -0.3922729

v -3.366537 -2.045012 -8.516928
vt 0.7602683 0.3635188
vn -2.775844E-09 -0.919849 -0.3922728

v 4.003478 -3.128199 -5.976941
vt 0.9014378 0.4121711
vn -2.775844E-09 -0.919849 -0.3922728

v 3.366537 -2.045012 -8.516929
vt 0.8892375 0.3635188
vn -3.489513E-08 -0.919849 -0.3922727

v 1.970967 -2.317373 7.542823
vt 0.862506 0.6711361
vn -8.695723E-09 -0.9986554 0.05184221

v 1.952637 -1.756835 18.34067
vt 0.8621548 0.877964
vn 4.68603E-11 -0.9986554 0.05184222

v -1.976392 -2.317373 7.542822
vt 0.786896 0.6711361
vn 4.68603E-11 -0.9986554 0.05184222

v -1.952631 -1.756835 18.34067
vt 0.7873511 0.877964
vn 8.789444E-09 -0.9986554 0.05184222

v 1.970967 -2.317373 7.542823
vt 0.862506 0.6711361
vn 0.4225158 -0.8887476 0.1777868

v -8.386084 -2.124758 -14.37119
vt 0.6641212 0.2513829
vn -0.06987971 -0.8428013 -0.5336691

v -6.369796 -0.954307 -16.48366
vt 0.7027422 0.2109197
vn -0.06987971 -0.8428013 -0.5336691

v -2.38176 -1.940863 -15.44783
vt 0.7791313 0.2307605
vn -0.06987971 -0.8428013 -0.5336691

v -3.366537 -2.045012 -8.516928
vt 0.7602683 0.3635188
vn -0.3418475 -0.7963075 0.4990338

v -6.799179 -0.728396 -8.767429
vt 0.6945177 0.3587206
vn -0.3418475 -0.7963075 0.4990338

v -8.670674 -2.090004 -12.22215
vt 0.65867 0.2925469
vn -0.3418475 -0.7963075 0.4990338

v -8.386084 -2.124758 -14.37119
vt 0.6641212 0.2513829
vn 0.03431486 -0.9991967 0.02070345

v -2.38176 -1.940863 -15.44783
vt 0.7791313 0.2307605
vn 0.02579279 -0.9996591 0.004067101

v -8.670674 -2.090004 -12.22215
vt 0.65867 0.2925469
vn 0.02579279 -0.9996591 0.004067101

v -3.366537 -2.045012 -8.516928
vt 0.7602683 0.3635188
vn 0.01726171 -0.9997721 -0.01257067

v -8.386084 -2.124758 -14.37119
vt 0.01966487 0.2537386
vn -0.5435874 0.8375637 -0.05477054

v -6.799179 -0.728396 -8.767429
vt 0.0500613 0.3610763
vn -0.5435874 0.8375637 -0.05477054

v -6.369796 -0.954307 -16.48366
vt 0.05828595 0.2132755
vn -0.5435874 0.8375637 -0.05477054

v -2.38176 -1.940863 -15.44783
vt 0.7791313 0.2307605
vn -0.2914142 -0.9259946 0.2400244

v -6.369796 -0.954307 -16.48366
vt 0.7027422 0.2109197
vn -0.2914142 -0.9259946 0.2400244

v -2.777176 -2.084918 -16.48366
vt 0.7715572 0.2109197
vn -0.2914142 -0.9259946 0.2400244

v 2.777176 -2.084918 -16.47586
vt 0.8779486 0.211069
vn 0.2906067 -0.9234843 0.2504485

v 6.370004 -0.9543067 -16.47586
vt 0.9467676 0.211069
vn 0.2906067 -0.9234843 0.2504485

v 2.381759 -1.940863 -15.48587
vt 0.8703745 0.2300318
vn 0.2906067 -0.9234843 0.2504485

v 8.670676 -2.090003 -12.22215
vt 0.9908358 0.2925468
vn 0.3418475 -0.7963074 0.4990338

v 6.799179 -0.7283954 -8.767429
vt 0.9549881 0.3587206
vn 0.3418475 -0.7963074 0.4990338

v 3.366537 -2.045012 -8.516929
vt 0.8892375 0.3635188
vn 0.3418475 -0.7963074 0.4990338

v 8.386084 -2.124758 -14.3712
vt 0.9853846 0.2513828
vn -0.03444908 -0.9991917 0.02072128

v 8.670676 -2.090003 -12.22215
vt 0.9908358 0.2925468
vn -0.02583805 -0.9996577 0.004107186

v 2.381759 -1.940863 -15.48587
vt 0.8703745 0.2300318
vn -0.02583805 -0.9996577 0.004107186

v 3.366537 -2.045012 -8.516929
vt 0.8892375 0.3635188
vn -0.01721797 -0.9997735 -0.01250835

v 2.381759 -1.940863 -15.48587
vt 0.8703745 0.2300318
vn 0.07415996 -0.8396758 -0.5380008

v 6.370004 -0.9543067 -16.47586
vt 0.9467676 0.211069
vn 0.07415996 -0.8396758 -0.5380008

v 8.386084 -2.124758 -14.3712
vt 0.9853846 0.2513828
vn 0.07415996 -0.8396758 -0.5380008

# 164 vertice(s).

f 1/1/1 2/2/2 3/3/3
f 4/4/4 5/5/5 6/6/6
f 7/7/7 6/6/6 5/5/5
f 8/8/8 9/9/9 10/10/10
f 11/11/11 10/10/10 9/9/9
f 12/12/12 13/13/13 14/14/14
f 15/15/15 16/16/16 17/17/17
f 18/18/18 17/17/17 16/16/16
f 19/19/19 20/20/20 21/21/21
f 22/22/22 23/23/23 24/24/24
f 25/25/25 26/26/26 27/27/27
f 28/28/28 27/27/27 26/26/26
f 29/29/29 30/30/30 31/31/31
f 32/32/32 33/33/33 34/34/34
f 30/30/30 29/29/29 35/35/35
f 36/36/36 37/37/37 38/38/38
f 31/31/31 38/38/38 37/37/37
f 39/39/39 40/40/40 41/41/41
f 40/40/40 42/42/42 41/41/41
f 43/43/43 44/44/44 45/45/45
f 46/46/46 28/28/28 47/47/47
f 48/48/48 49/49/49 50/50/50
f 24/24/24 28/28/28 22/22/22
f 51/51/51 52/52/52 53/53/53
f 54/54/54 55/55/55 56/56/56
f 57/57/57 58/58/58 59/59/59
f 60/60/60 61/61/61 62/62/62
f 62/62/62 61/61/61 63/63/63
f 14/14/14 13/13/13 8/8/8
f 13/13/13 9/9/9 8/8/8
f 64/64/64 65/65/65 66/66/66
f 67/67/67 66/66/66 65/65/65
f 68/68/68 4/4/4 49/49/49
f 4/4/4 6/6/6 49/49/49
f 69/69/69 70/70/70 56/56/56
f 70/70/70 54/54/54 56/56/56
f 71/71/71 72/72/72 73/73/73
f 73/73/73 72/72/72 74/74/74
f 75/75/75 76/76/76 77/77/77
f 76/76/76 78/78/78 77/77/77
f 45/45/45 79/79/79 43/43/43
f 80/80/80 43/43/43 79/79/79
f 81/81/81 82/82/82 83/83/83
f 84/84/84 85/85/85 86/86/86
f 59/59/59 58/58/58 87/87/87
f 87/87/87 58/58/58 46/46/46
f 47/47/47 87/87/87 46/46/46
f 88/88/88 89/89/89 90/90/90
f 43/43/43 91/91/91 44/44/44
f 91/91/91 92/92/92 44/44/44
f 93/93/93 94/94/94 95/95/95
f 94/94/94 96/96/96 95/95/95
f 96/96/96 97/97/97 95/95/95
f 98/98/98 99/99/99 100/100/100
f 100/100/100 99/99/99 101/101/101
f 102/102/102 103/103/103 104/104/104
f 103/103/103 105/105/105 104/104/104
f 106/106/106 58/58/58 57/57/57
f 107/107/107 106/106/106 108/108/108
f 92/92/92 91/91/91 109/109/109
f 108/108/108 106/106/106 57/57/57
f 110/110/110 111/111/111 112/112/112
f 113/113/113 52/52/52 114/114/114
f 52/52/52 51/51/51 114/114/114
f 115/115/115 80/80/80 79/79/79
f 24/24/24 47/47/47 28/28/28
f 29/29/29 31/31/31 115/115/115
f 31/31/31 80/80/80 115/115/115
f 46/46/46 27/27/27 28/28/28
f 32/32/32 19/19/19 33/33/33
f 33/33/33 19/19/19 21/21/21
f 19/19/19 32/32/32 116/116/116
f 117/117/117 116/116/116 32/32/32
f 118/118/118 119/119/119 120/120/120
f 119/119/119 121/121/121 120/120/120
f 122/122/122 123/123/123 124/124/124
f 124/124/124 123/123/123 125/125/125
f 123/123/123 126/126/126 125/125/125
f 127/127/127 128/128/128 129/129/129
f 128/128/128 130/130/130 129/129/129
f 131/131/131 132/132/132 133/133/133
f 132/132/132 134/134/134 133/133/133
f 48/48/48 68/68/68 49/49/49
f 12/12/12 135/135/135 13/13/13
f 46/46/46 80/80/80 27/27/27
f 80/80/80 37/37/37 27/27/27
f 37/37/37 80/80/80 31/31/31
f 136/136/136 137/137/137 138/138/138
f 139/139/139 140/140/140 141/141/141
f 142/142/142 143/143/143 144/144/144
f 144/144/144 143/143/143 145/145/145
f 146/146/146 147/147/147 148/148/148
f 149/149/149 150/150/150 151/151/151
f 152/152/152 153/153/153 154/154/154
f 155/155/155 156/156/156 157/157/157
f 158/158/158 159/159/159 160/160/160
f 159/159/159 161/161/161 160/160/160
f 162/162/162 163/163/163 164/164/164
# 294 indices; 98 primitives.

# 1 primitive groups.

# 1 parts.

