mtllib LOD1.mtl

g TurretUV
usemtl TurretUV

v 1.659179 -0.1477665 -0.5539
vt 0.296875 0.7577384
vn 2.671999E-16 -1 -1.058005E-08

v 1.659179 -0.1477665 1.611828
vt 0.296875 0.5074494
vn 0 -1 -4.051186E-09

v -1.67037 -0.1477665 -0.5539
vt 0.296875 0.7577384
vn -1.531806E-16 -1 -1.297032E-08

v -1.67037 -0.1477665 1.611828
vt 0.296875 0.5074494
vn 0 -1 -4.743923E-09

v 0.7699581 -0.1477665 -1.55224
vt 0.390625 0.8668244
vn -3.063612E-16 -1 -2.188946E-08

v -0.7811493 -0.1477665 -1.55224
vt 0.390625 0.8668244
vn -1.147122E-15 -1 -2.597727E-08

v 0.7781493 1.671884 3.123149
vt 0.609375 0.2712099
vn 0.9807532 0.1881338 0.05223916

v 1.08782 0.2434567 2.453639
vt 0.765625 0.3513744
vn 0.9807532 0.1881338 0.05223916

v 0.8235437 2.125112 0.6386518
vt 0.625 0.55246
vn 0.9807532 0.1881338 0.05223916

v 1.08782 0.2434567 2.453639
vt 0.375 0.3980743
vn -3.804928E-08 -0.8775536 0.4794784

v 0.7781493 0.8624026 3.586449
vt 0.40625 0.2574493
vn 7.516864E-09 -0.8775536 0.4794784

v -1.099018 0.2434567 2.453639
vt 0.375 0.3980743
vn 7.516864E-09 -0.8775536 0.4794784

v -0.7893502 0.8624026 3.586449
vt 0.40625 0.2574493
vn 5.3083E-08 -0.8775536 0.4794784

v 1.08782 0.2434567 2.453639
vt 0.765625 0.3513744
vn 0.9724008 0.115897 0.2024961

v 0.7781493 1.671884 3.123149
vt 0.609375 0.2712099
vn 0.9724008 0.115897 0.2024961

v 0.7781493 0.8624026 3.586449
vt 0.6875 0.2087099
vn 0.9724008 0.115897 0.2024961

v -0.78935 1.671884 3.123149
vt 0.609375 0.2712099
vn -0.9807534 0.1881327 0.05223799

v -0.834742 2.125112 0.6386518
vt 0.625 0.55246
vn -0.9807534 0.1881327 0.05223799

v -1.099018 0.2434567 2.453639
vt 0.765625 0.3513744
vn -0.9807534 0.1881327 0.05223799

v -2.496584 0.2434567 2.477777
vt 0.203125 0.3980743
vn -0.4270189 -0.904242 0.001098553

v -2.504998 0.2434567 -0.7930042
vt 0.203125 0.7730744
vn -0.425723 -0.9048535 0.0005492739

v -1.67037 -0.1477665 1.611828
vt 0.296875 0.5074494
vn -0.425723 -0.9048535 0.0005492739

v -1.67037 -0.1477665 -0.5539
vt 0.296875 0.7577384
vn -0.4244259 -0.9054627 -6.351078E-09

v 2.485388 0.2434567 2.477777
vt 0.203125 0.3980743
vn -0.007209528 -0.9086892 0.4174111

v 1.08782 0.2434567 2.453639
vt 0.375 0.3980743
vn -0.002403198 -0.9074713 0.4201072

v 1.659179 -0.1477665 1.611828
vt 0.296875 0.5074494
vn -0.003604789 -0.9077785 0.4194344

v -2.496584 0.2434567 2.477777
vt 0.203125 0.3980743
vn 0.007209487 -0.9086893 0.4174111

v -1.67037 -0.1477665 1.611828
vt 0.296875 0.5074494
vn 0.002403178 -0.9074713 0.4201072

v -1.099018 0.2434567 2.453639
vt 0.375 0.3980743
vn 0.003604764 -0.9077785 0.4194344

v 2.485388 0.2434567 2.477777
vt 0.203125 0.3980743
vn 0.4270212 -0.904241 0.001098558

v 1.659179 -0.1477665 1.611828
vt 0.296875 0.5074494
vn 0.4257251 -0.9048524 0.0005492758

v 2.493802 0.2434567 -0.7930042
vt 0.203125 0.7730744
vn 0.4257251 -0.9048524 0.0005492758

v 1.659179 -0.1477665 -0.5539
vt 0.296875 0.7577384
vn 0.424428 -0.9054617 -7.485061E-09

v 0.8235437 2.125112 -1.14683
vt 0.625 0.7375721
vn 0.2513648 0.9678924 -6.986733E-08

v 0.8235437 2.125112 0.6386518
vt 0.625 0.55246
vn 0.2513648 0.9678924 -6.986733E-08

v 2.251248 1.754332 -0.6817361
vt 0.8100551 0.6965807
vn 0.2513648 0.9678924 -6.986733E-08

v 2.493802 0.2434567 -0.7930042
vt 1.001241 0.6976119
vn 0.9873574 0.1585096 -1.358155E-07

v 2.251248 1.754332 -0.6817361
vt 0.8100551 0.6965807
vn 0.9873574 0.1585096 -1.358155E-07

v 2.251248 1.754333 0.6386527
vt 0.8110161 0.5523187
vn 0.9873574 0.1585096 -1.358155E-07

v 2.493802 0.2434567 -0.7930042
vt 1.001241 0.6976119
vn 0.762632 0.1684249 -0.6245202

v 1.08782 0.7052385 -2.385382
vt 0.9453223 0.8883745
vn 0.7987712 0.08205393 -0.5960132

v 2.251248 1.754332 -0.6817361
vt 0.8100551 0.6965807
vn 0.7987712 0.08205393 -0.5960132

v 1.08782 1.559296 -2.39314
vt 0.8282322 0.8890466
vn 0.8272594 -0.005103053 -0.5617971

v -2.262443 1.754333 -0.6817361
vt 0.8100551 0.6965807
vn -0.3363866 0.8822999 -0.3292278

v -0.834742 2.125112 -1.14683
vt 0.625 0.7375721
vn -0.3363866 0.8822999 -0.3292278

v -1.099018 1.559296 -2.39314
vt 0.640625 0.8890466
vn -0.3363866 0.8822999 -0.3292278

v -1.099018 1.559296 -2.39314
vt 0.640625 0.8890466
vn 2.85234E-08 0.9105561 -0.4133856

v -0.834742 2.125112 -1.14683
vt 0.625 0.7375721
vn -4.54569E-09 0.9105561 -0.4133856

v -0.005599175 1.559296 -2.39314
vt 0.53125 0.8890466
vn 1.42617E-08 0.9105561 -0.4133856

v -0.005599125 2.125112 -1.14683
vt 0.53125 0.7375721
vn 0 0.9105561 -0.4133856

v 1.08782 1.559296 -2.39314
vt 0.640625 0.8890466
vn 2.852341E-08 0.9105562 -0.4133856

v 0.8235437 2.125112 -1.14683
vt 0.625 0.7375721
vn 3.306909E-08 0.9105561 -0.4133856

v -1.099018 0.7052408 -2.385382
vt 0.6406506 0.974335
vn -2.305873E-07 -0.009083228 -0.9999588

v -1.099018 1.559296 -2.39314
vt 0.640625 0.8890466
vn -1.866027E-08 -0.009083223 -0.9999588

v -0.005599175 0.7052397 -2.385382
vt 0.53125 0.974335
vn -1.866027E-08 -0.009083223 -0.9999588

v -0.005599175 1.559296 -2.39314
vt 0.53125 0.8890466
vn 1.932667E-07 -0.009083216 -0.9999588

v -2.504998 0.2434567 -0.7930042
vt 1.001241 0.6976119
vn -0.7626328 0.1684251 -0.6245193

v -2.262443 1.754333 -0.6817361
vt 0.8100551 0.6965807
vn -0.7987721 0.08205401 -0.5960121

v -1.099018 0.7052408 -2.385382
vt 0.9453223 0.8883745
vn -0.7987721 0.08205401 -0.5960121

v -1.099018 1.559296 -2.39314
vt 0.8282322 0.8890466
vn -0.8272602 -0.00510307 -0.561796

v 0.7781493 1.671884 3.123149
vt 0.609375 0.2712099
vn -9.346056E-08 0.4967363 0.8679016

v -0.78935 1.671884 3.123149
vt 0.609375 0.2712099
vn -9.346055E-08 0.4967363 0.8679016

v 0.7781493 0.8624026 3.586449
vt 0.609375 0.1774599
vn -9.346055E-08 0.4967363 0.8679016

v -0.7893502 0.8624026 3.586449
vt 0.609375 0.1774599
vn -9.346054E-08 0.4967362 0.8679016

v -1.099018 0.7052408 -2.385382
vt 0.328125 0.9761994
vn -0.4123704 -0.7105445 -0.5701554

v -0.7811493 -0.1477665 -1.55224
vt 0.390625 0.8668244
vn -0.3786371 -0.8141819 -0.4401611

v -2.504998 0.2434567 -0.7930042
vt 0.203125 0.7730744
vn -0.3786371 -0.8141819 -0.4401611

v -1.67037 -0.1477665 -0.5539
vt 0.296875 0.7577384
vn -0.3340078 -0.8943895 -0.2975003

v 1.08782 0.7052385 -2.385382
vt 0.328125 0.9761994
vn -7.094595E-07 -0.698728 -0.7153874

v 0.7699581 -0.1477665 -1.55224
vt 0.390625 0.8668244
vn -3.530694E-07 -0.6987278 -0.7153876

v -0.005599175 0.7052397 -2.385382
vt 0.5 0.9761994
vn -4.908775E-07 -0.6987277 -0.7153878

v -0.7811493 -0.1477665 -1.55224
vt 0.390625 0.8668244
vn -3.815865E-07 -0.6987275 -0.7153879

v -1.099018 0.7052408 -2.385382
vt 0.328125 0.9761994
vn -7.664937E-07 -0.6987273 -0.7153881

v 1.08782 0.7052385 -2.385382
vt 0.328125 0.9761994
vn 0.4123715 -0.7105436 -0.5701557

v 2.493802 0.2434567 -0.7930042
vt 0.203125 0.7730744
vn 0.3786383 -0.814181 -0.4401618

v 0.7699581 -0.1477665 -1.55224
vt 0.390625 0.8668244
vn 0.3786383 -0.814181 -0.4401618

v 1.659179 -0.1477665 -0.5539
vt 0.296875 0.7577384
vn 0.334009 -0.8943887 -0.2975014

v -0.834742 2.125112 0.6386518
vt 0.625 0.55246
vn 2.201693E-08 0.9837652 0.1794605

v -0.78935 1.671884 3.123149
vt 0.609375 0.2712099
vn 5.185439E-09 0.9837652 0.1794605

v -0.005599125 2.125112 0.6386518
vt 0.53125 0.55246
vn 1.079594E-08 0.9837652 0.1794605

v 0.7781493 1.671884 3.123149
vt 0.609375 0.2712099
vn 5.185438E-09 0.9837652 0.1794605

v 0.8235437 2.125112 0.6386518
vt 0.625 0.55246
vn 2.201693E-08 0.9837652 0.1794606

v -0.834742 2.125112 0.6386518
vt 0.625 0.55246
vn -0.2513631 0.9678929 -1.858334E-06

v -2.262443 1.754333 -0.6817361
vt 0.8100551 0.6965807
vn -0.2513631 0.9678929 -1.858334E-06

v -2.262443 1.754336 0.6386518
vt 0.8110161 0.5523187
vn -0.2513631 0.9678929 -1.858334E-06

v -0.005599125 2.125112 -1.14683
vt 0.53125 0.7375721
vn 0 1 6.282313E-08

v -0.834742 2.125112 -1.14683
vt 0.625 0.7375721
vn 0 1 0

v -0.005599125 2.125112 0.6386518
vt 0.53125 0.55246
vn 0 1 0

v -0.834742 2.125112 0.6386518
vt 0.625 0.55246
vn 0 1 -6.282313E-08

v 1.08782 1.559296 -2.39314
vt 0.640625 0.8890466
vn 0.3363866 0.8822999 -0.3292279

v 0.8235437 2.125112 -1.14683
vt 0.625 0.7375721
vn 0.3363866 0.8822999 -0.3292279

v 2.251248 1.754332 -0.6817361
vt 0.8100551 0.6965807
vn 0.3363866 0.8822999 -0.3292279

v 0.8235437 2.125112 0.6386518
vt 0.7899359 0.3381662
vn 0.1807113 0.6958417 0.6950883

v 1.08782 0.2434567 2.453639
vt 0.8052198 0.123626
vn 0.08535993 0.7381647 0.6691985

v 2.251248 1.754333 0.6386527
vt 0.9686488 0.3000708
vn 0.08535993 0.7381647 0.6691985

v 2.485388 0.2434567 2.477777
vt 0.9861762 0.1241958
vn -0.01097766 0.7719594 0.6355771

v -0.834742 2.125112 0.6386518
vt 0.7899359 0.3381662
vn -0.180711 0.6958417 0.6950884

v -2.262443 1.754336 0.6386518
vt 0.9686488 0.3000708
vn -0.08535981 0.7381645 0.6691987

v -1.099018 0.2434567 2.453639
vt 0.8052198 0.123626
vn -0.08535981 0.7381645 0.6691987

v -2.496584 0.2434567 2.477777
vt 0.9861762 0.1241958
vn 0.0109776 0.7719591 0.6355774

v -1.099018 0.2434567 2.453639
vt 0.765625 0.3513744
vn -0.9724012 0.1158962 0.2024945

v -0.7893502 0.8624026 3.586449
vt 0.6875 0.2087099
vn -0.9724012 0.1158962 0.2024945

v -0.78935 1.671884 3.123149
vt 0.609375 0.2712099
vn -0.9724012 0.1158962 0.2024945

v 0.8235437 2.125112 -1.14683
vt 0.625 0.7375721
vn 0 1 -1.739053E-08

v 0.8235437 2.125112 0.6386518
vt 0.625 0.55246
vn 0 1 0

v 1.08782 0.7052385 -2.385382
vt 0.6406506 0.974335
vn -1.866027E-08 -0.00908321 -0.9999588

v 1.08782 1.559296 -2.39314
vt 0.640625 0.8890466
vn 1.65849E-07 -0.009083203 -0.9999588

v 2.251248 1.754333 0.6386527
vt 0.8110161 0.5523187
vn 0.2513641 0.9678927 -7.793697E-07

v -0.834742 2.125112 -1.14683
vt 0.625 0.7375721
vn -0.2513646 0.9678925 -8.181798E-08

v 2.493802 0.2434567 -0.7930042
vt 1.001241 0.6976119
vn 0.9877284 0.1561611 0.002541058

v 2.251248 1.754333 0.6386527
vt 0.8110161 0.5523187
vn 0.9877284 0.1561611 0.002541058

v 2.485388 0.2434567 2.477777
vt 0.9931492 0.3668977
vn 0.9877284 0.1561611 0.002541058

v -2.504998 0.2434567 -0.7930042
vt 1.001241 0.6976119
vn -0.9873575 0.1585099 -2.927188E-07

v -2.262443 1.754336 0.6386518
vt 0.8110161 0.5523187
vn -0.9873575 0.1585099 -2.927188E-07

v -2.262443 1.754333 -0.6817361
vt 0.8100551 0.6965807
vn -0.9873575 0.1585099 -2.927188E-07

v -2.504998 0.2434567 -0.7930042
vt 1.001241 0.6976119
vn -0.9877284 0.1561615 0.002541058

v -2.496584 0.2434567 2.477777
vt 0.9931492 0.3668977
vn -0.9877284 0.1561615 0.002541058

v -2.262443 1.754336 0.6386518
vt 0.8110161 0.5523187
vn -0.9877284 0.1561615 0.002541058

# 118 vertice(s).

f 1/1/1 2/2/2 3/3/3
f 2/2/2 4/4/4 3/3/3
f 1/1/1 3/3/3 5/5/5
f 6/6/6 5/5/5 3/3/3
f 7/7/7 8/8/8 9/9/9
f 10/10/10 11/11/11 12/12/12
f 11/11/11 13/13/13 12/12/12
f 14/14/14 15/15/15 16/16/16
f 17/17/17 18/18/18 19/19/19
f 20/20/20 21/21/21 22/22/22
f 21/21/21 23/23/23 22/22/22
f 24/24/24 25/25/25 26/26/26
f 27/27/27 28/28/28 29/29/29
f 26/26/26 25/25/25 28/28/28
f 25/25/25 29/29/29 28/28/28
f 30/30/30 31/31/31 32/32/32
f 31/31/31 33/33/33 32/32/32
f 34/34/34 35/35/35 36/36/36
f 37/37/37 38/38/38 39/39/39
f 40/40/40 41/41/41 42/42/42
f 41/41/41 43/43/43 42/42/42
f 44/44/44 45/45/45 46/46/46
f 47/47/47 48/48/48 49/49/49
f 48/48/48 50/50/50 49/49/49
f 51/51/51 49/49/49 52/52/52
f 49/49/49 50/50/50 52/52/52
f 53/53/53 54/54/54 55/55/55
f 54/54/54 56/56/56 55/55/55
f 57/57/57 58/58/58 59/59/59
f 59/59/59 58/58/58 60/60/60
f 61/61/61 62/62/62 63/63/63
f 62/62/62 64/64/64 63/63/63
f 65/65/65 66/66/66 67/67/67
f 66/66/66 68/68/68 67/67/67
f 69/69/69 70/70/70 71/71/71
f 70/70/70 72/72/72 71/71/71
f 71/71/71 72/72/72 73/73/73
f 74/74/74 75/75/75 76/76/76
f 76/76/76 75/75/75 77/77/77
f 78/78/78 79/79/79 80/80/80
f 79/79/79 81/81/81 80/80/80
f 80/80/80 81/81/81 82/82/82
f 83/83/83 84/84/84 85/85/85
f 86/86/86 87/87/87 88/88/88
f 87/87/87 89/89/89 88/88/88
f 90/90/90 91/91/91 92/92/92
f 93/93/93 94/94/94 95/95/95
f 95/95/95 94/94/94 96/96/96
f 97/97/97 98/98/98 99/99/99
f 98/98/98 100/100/100 99/99/99
f 101/101/101 102/102/102 103/103/103
f 104/104/104 86/86/86 105/105/105
f 86/86/86 88/88/88 105/105/105
f 55/55/55 56/56/56 106/106/106
f 56/56/56 107/107/107 106/106/106
f 36/36/36 35/35/35 108/108/108
f 109/109/109 84/84/84 83/83/83
f 110/110/110 111/111/111 112/112/112
f 113/113/113 114/114/114 115/115/115
f 116/116/116 117/117/117 118/118/118
# 180 indices; 60 primitives.

# 1 primitive groups.

# 1 parts.

