mtllib LOD1.mtl

g Kpr_AttackDroidTEX
usemtl Kpr_AttackDroidTEX

v 5.272209 -0.3094635 1.950607
vt 0.3964844 0.6015625
vn 0.05713086 -0.9977891 0.03395576

v 0.7211185 -0.5038263 3.896509
vt 0.3041036 0.5643499
vn 0.08456579 -0.9944634 0.06237888

v 8.57401 -0.3129005 -3.7057
vt 0.5099711 0.4928707
vn 0.1018489 -0.9905998 0.09131788

v 0.09410435 0.9747777 -0.07126024
vt 0.3472708 0.4156557
vn 0.1314635 0.9829988 0.1281832

v 0.7211186 0.4960841 3.89651
vt 0.3040931 0.5643215
vn 0.08587314 0.9941851 0.06497501

v 8.574012 0.3146296 -3.705694
vt 0.5100601 0.4928128
vn 0.1050543 0.9898729 0.09547409

v 12.66138 0.4506369 -9.233837
vt 0.6210329 0.3762383
vn -0.5891277 5.469849E-07 -0.80804

v 12.66137 -0.4132462 -9.233831
vt 0.621022 0.3429294
vn -0.5891277 5.469849E-07 -0.80804

v 0.09410411 -0.938392 -0.07126155
vt 0.3336493 0.3294487
vn -0.5891277 5.469849E-07 -0.80804

v 0.09410435 0.9747777 -0.07126024
vt 0.333669 0.3907994
vn -0.5891277 5.469849E-07 -0.80804

v 0.7211186 0.4960841 3.89651
vt 0.6220863 0.02677699
vn 0.3931402 1.571404E-07 0.9194785

v 0.7211185 -0.5038263 3.896509
vt 0.6221253 0.06533036
vn 0.3931402 1.571404E-07 0.9194785

v 5.272209 -0.3094635 1.950607
vt 0.7151445 0.05744852
vn 0.3931402 1.571404E-07 0.9194785

v 5.272208 0.3180628 1.950605
vt 0.71512 0.0332532
vn 0.3931402 1.571404E-07 0.9194785

v 13.96279 -0.4411001 -9.474743
vt 0.6573442 0.4262134
vn -0.04258106 -0.9924196 -0.1152833

v 0.09410411 -0.938392 -0.07126155
vt 0.3472709 0.4156556
vn -0.04258106 -0.9924196 -0.1152833

v 12.66137 -0.4132462 -9.233831
vt 0.6341809 0.4057244
vn -0.04258106 -0.9924196 -0.1152833

v 0.09410411 -0.938392 -0.07126155
vt 0.3472709 0.4156556
vn 0.1240152 -0.9850183 0.1198305

v 13.96279 -0.4411001 -9.474743
vt 0.6573442 0.4262134
vn 0.1360365 -0.9794601 0.1488353

v 5.272208 0.3180628 1.950605
vt 0.3964844 0.6015625
vn 0.05168863 0.9982256 0.02956679

v 13.96278 0.4473782 -9.474753
vt 0.6573443 0.426213
vn -0.01080876 0.9973549 -0.0718784

v 12.66138 0.4506369 -9.233837
vt 0.634181 0.4057244
vn -0.01080876 0.9973549 -0.0718784

v 0.09410435 0.9747777 -0.07126024
vt 0.3472708 0.4156557
vn -0.01080876 0.9973549 -0.0718784

v 8.574012 0.3146296 -3.705694
vt 0.8267826 0.03286799
vn 0.8636265 -2.013624E-06 0.5041322

v 5.272208 0.3180628 1.950605
vt 0.71512 0.0332532
vn 0.8636265 -2.013624E-06 0.5041322

v 5.272209 -0.3094635 1.950607
vt 0.7151445 0.05744852
vn 0.8636265 -2.013624E-06 0.5041322

v 8.57401 -0.3129005 -3.7057
vt 0.8268076 0.05706351
vn 0.8636265 -2.013624E-06 0.5041322

v 13.96278 0.4473782 -9.474753
vt 0.9846433 0.05237505
vn 0.7307817 3.87637E-06 0.6826113

v 8.574012 0.3146296 -3.705694
vt 0.8267826 0.03286799
vn 0.7307817 3.87637E-06 0.6826113

v 8.57401 -0.3129005 -3.7057
vt 0.8268076 0.05706351
vn 0.7307817 3.87637E-06 0.6826113

v 13.96279 -0.4411001 -9.474743
vt 0.9846786 0.08663197
vn 0.7307817 3.87637E-06 0.6826113

v 13.96278 0.4473782 -9.474753
vt 0.6573443 0.426213
vn 0.1429553 0.9773542 0.1560213

v 12.66138 0.4506369 -9.233837
vt 0.6210329 0.3762383
vn -0.1820245 -8.770547E-06 -0.983294

v 13.96278 0.4473782 -9.474753
vt 0.6451037 0.3760796
vn -0.1820245 -8.770547E-06 -0.983294

v 13.96279 -0.4411001 -9.474743
vt 0.6450929 0.3418228
vn -0.1820245 -8.770547E-06 -0.983294

v 12.66137 -0.4132462 -9.233831
vt 0.621022 0.3429294
vn -0.1820245 -8.770547E-06 -0.983294

# 36 vertice(s).

f 1/1/1 2/2/2 3/3/3
f 4/4/4 5/5/5 6/6/6
f 7/7/7 8/8/8 9/9/9
f 7/7/7 9/9/9 10/10/10
f 11/11/11 12/12/12 13/13/13
f 11/11/11 13/13/13 14/14/14
f 15/15/15 16/16/16 17/17/17
f 3/3/3 18/18/18 19/19/19
f 6/6/6 5/5/5 20/20/20
f 21/21/21 22/22/22 23/23/23
f 24/24/24 25/25/25 26/26/26
f 24/24/24 26/26/26 27/27/27
f 28/28/28 29/29/29 30/30/30
f 28/28/28 30/30/30 31/31/31
f 4/4/4 6/6/6 32/32/32
f 3/3/3 2/2/2 18/18/18
f 33/33/33 34/34/34 35/35/35
f 33/33/33 35/35/35 36/36/36
# 54 indices; 18 primitives.

# 1 primitive groups.

# 1 parts.

