mtllib LOD1.mtl

g Kpr_AttackDroidTEX
usemtl Kpr_AttackDroidTEX

v -1.33487 -0.5148335 -19.00279
vt 0.760233 0.7737736
vn -0.9277202 0.3502707 0.1290182

v -0.555112 1.675772 -19.34311
vt 0.764172 0.8562214
vn -0.9277202 0.3502707 0.1290182

v -0.555112 2.80543 -22.41002
vt 0.8204057 0.8996306
vn -0.9277202 0.3502707 0.1290182

v -2.736779 -0.394792 -0.9278882
vt 0.4355121 0.6091936
vn -0.5094814 -0.8598173 -0.03380561

v -1.33487 -0.5148335 -19.00279
vt 0.7505316 0.6798499
vn -0.5094814 -0.8598173 -0.03380561

v -1.945656 -0.843138 -1.447527
vt 0.4450075 0.6521972
vn -0.5094814 -0.8598173 -0.03380561

v -2.736779 -0.394792 -0.9278882
vt 0.4277947 0.7727057
vn -0.7295256 0.3800911 0.5686151

v 0.02662202 0.6736056 1.903347
vt 0.3735741 0.8119917
vn -0.7295256 0.3800911 0.5686151

v -0.555112 2.75841 -0.2365983
vt 0.4126155 0.8910179
vn -0.7295256 0.3800911 0.5686151

v 0.02662202 -1.316437 -1.797705
vt 0.4716162 0.7411485
vn -1.18222E-09 -0.9999982 0.001895075

v -1.100877 -1.316437 -1.797705
vt 0.471663 0.6954604
vn -1.18222E-09 -0.9999982 0.001895075

v -0.4271152 -1.345268 -17.01167
vt 0.7388306 0.7242537
vn -1.18222E-09 -0.9999982 0.001895075

v 0.02662202 -1.345268 -17.01167
vt 0.7388117 0.7426399
vn -1.18222E-09 -0.9999982 0.001895075

v -1.33487 -0.5148335 -19.00279
vt 0.7673398 0.711767
vn -0.5782917 -0.8152741 -0.0301196

v -0.4271152 -1.345268 -17.01167
vt 0.7388306 0.7242537
vn -0.5782917 -0.8152741 -0.0301196

v -1.100877 -1.316437 -1.797705
vt 0.471663 0.6954604
vn -0.5782917 -0.8152741 -0.0301196

v -1.945656 -0.843138 -1.447527
vt 0.464986 0.6829143
vn -0.5782917 -0.8152741 -0.0301196

v -0.555112 1.675772 -19.34311
vt 0.764172 0.8562214
vn -0.94285 0.3326838 -0.01885096

v -1.33487 -0.5148335 -19.00279
vt 0.760233 0.7737736
vn -0.94285 0.3326838 -0.01885096

v -0.555112 2.75841 -0.2365983
vt 0.4126155 0.8910179
vn -0.94285 0.3326838 -0.01885096

v -2.736779 -0.394792 -0.9278882
vt 0.4355121 0.6091936
vn -0.1666528 -0.8577327 0.4863347

v -1.945656 -0.843138 -1.447527
vt 0.4450075 0.6521972
vn -0.1666528 -0.8577327 0.4863347

v 0.02662202 0.6736056 1.903347
vt 0.3759911 0.6947564
vn -0.1666528 -0.8577327 0.4863347

v -1.100877 -1.316437 -1.797705
vt 0.471663 0.6954604
vn 0.003119885 -0.5863369 0.8100613

v 0.02662202 -1.316437 -1.797705
vt 0.4716162 0.7411485
vn -7.683449E-09 -0.5863397 0.8100653

v 0.02662202 -0.8367288 -1.454826
vt 0.4649263 0.7410906
vn -7.683449E-09 -0.5863397 0.8100653

v -1.945656 -0.843138 -1.447527
vt 0.464986 0.6829143
vn 0.003119885 -0.5863369 0.8100613

v 0.02662202 0.6736056 1.903347
vt 0.3759911 0.6947564
vn -6.984989E-10 -0.9120072 0.4101741

v -1.945656 -0.843138 -1.447527
vt 0.4450075 0.6521972
vn 0.004481717 -0.9119982 0.4101701

v 0.02662202 -0.8367288 -1.454826
vt 0.4449714 0.7212457
vn -6.984989E-10 -0.9120072 0.4101741

v 0.02662202 0.6736056 1.903347
vt 0.3999993 0.9393004
vn -4.685802E-08 0.7162749 0.6978182

v 0.02662202 2.75841 -0.2365983
vt 0.4640005 0.9712687
vn -4.685802E-08 0.7162749 0.6978182

v -0.555112 2.75841 -0.2365983
vt 0.4639798 0.94218
vn -4.685802E-08 0.7162749 0.6978182

v -0.555112 1.675772 -19.34311
vt 0.8173063 0.9406638
vn -9.402623E-09 0.9983985 -0.05657254

v -0.555112 2.75841 -0.2365983
vt 0.4639798 0.94218
vn -9.402623E-09 0.9983985 -0.05657254

v 0.02662202 2.75841 -0.2365983
vt 0.4640005 0.9712687
vn -9.402623E-09 0.9983985 -0.05657254

v 0.02662202 1.675772 -19.34311
vt 0.8173269 0.9697524
vn -9.402623E-09 0.9983985 -0.05657254

v -0.555112 2.80543 -22.41002
vt 0.8746808 0.9403918
vn -5.737801E-08 0.9383683 0.3456371

v -0.555112 1.675772 -19.34311
vt 0.8173063 0.9406638
vn -5.737801E-08 0.9383683 0.3456371

v 0.02662202 1.675772 -19.34311
vt 0.8173269 0.9697524
vn -5.737801E-08 0.9383683 0.3456371

v 0.02662202 2.80543 -22.41002
vt 0.8747014 0.9694803
vn -5.737801E-08 0.9383683 0.3456371

v -1.33487 -0.5148335 -19.00279
vt 0.5940806 0.09250256
vn 0.005004126 -0.7171772 -0.696873

v -0.555112 2.80543 -22.41002
vt 0.6043929 0.3070112
vn 0.005004126 -0.7171772 -0.696873

v 0.02662202 2.80543 -22.41002
vt 0.6167316 0.3069881
vn 0.005004126 -0.7171772 -0.696873

v 0.02662202 -0.7744079 -18.7217
vt 0.616632 0.08416992
vn 0.005004126 -0.7171772 -0.696873

v -1.33487 -0.5148335 -19.00279
vt 0.7673398 0.711767
vn -0.08231194 -0.9385586 -0.3351606

v 0.02662202 -0.7744079 -18.7217
vt 0.767308 0.7427783
vn -1.53257E-07 -0.9417543 -0.3363018

v 0.02662202 -1.345268 -17.01167
vt 0.7388117 0.7426399
vn -1.53257E-07 -0.9417543 -0.3363018

v -0.4271152 -1.345268 -17.01167
vt 0.7388306 0.7242537
vn -0.08231194 -0.9385586 -0.3351606

v 1.388113 -0.5148335 -19.00279
vt 0.760233 0.7737736
vn 0.9277203 0.3502705 0.1290181

v 0.6083561 2.80543 -22.41002
vt 0.8204057 0.8996306
vn 0.9277203 0.3502705 0.1290181

v 0.6083561 1.675772 -19.34311
vt 0.764172 0.8562214
vn 0.9277203 0.3502705 0.1290181

v 2.790023 -0.394792 -0.9278882
vt 0.4355121 0.6091936
vn 0.5094815 -0.8598173 -0.03380561

v 1.9989 -0.843138 -1.447527
vt 0.4450075 0.6521972
vn 0.5094815 -0.8598173 -0.03380561

v 1.388113 -0.5148335 -19.00279
vt 0.7505316 0.6798499
vn 0.5094815 -0.8598173 -0.03380561

v 0.4803592 -1.345268 -17.01167
vt 0.7388306 0.7242537
vn -1.18222E-09 -0.9999982 0.001895069

v 1.154121 -1.316437 -1.797705
vt 0.471663 0.6954604
vn -1.18222E-09 -0.9999982 0.001895069

v 1.388113 -0.5148335 -19.00279
vt 0.7673398 0.711767
vn 0.5782916 -0.815274 -0.03011959

v 1.9989 -0.843138 -1.447527
vt 0.464986 0.6829143
vn 0.5782916 -0.815274 -0.03011959

v 1.154121 -1.316437 -1.797705
vt 0.471663 0.6954604
vn 0.5782916 -0.815274 -0.03011959

v 0.4803592 -1.345268 -17.01167
vt 0.7388306 0.7242537
vn 0.5782916 -0.815274 -0.03011959

v 2.790023 -0.394792 -0.9278882
vt 0.4277947 0.7727057
vn 0.7295256 0.3800911 0.5686152

v 0.6083561 2.75841 -0.2365983
vt 0.4126155 0.8910179
vn 0.7295256 0.3800911 0.5686152

v 0.02662202 0.6736056 1.903347
vt 0.3735741 0.8119917
vn 0.7295256 0.3800911 0.5686152

v 0.6083561 2.75841 -0.2365983
vt 0.4126155 0.8910179
vn 0.8135822 0.577584 -0.06693826

v 2.790023 -0.394792 -0.9278882
vt 0.4277947 0.7727057
vn 0.8135822 0.577584 -0.06693826

v 1.388113 -0.5148335 -19.00279
vt 0.760233 0.7737736
vn 0.8135822 0.577584 -0.06693826

v 2.790023 -0.394792 -0.9278882
vt 0.4355121 0.6091936
vn 0.1666528 -0.8577327 0.4863347

v 0.02662202 0.6736056 1.903347
vt 0.3759911 0.6947564
vn 0.1666528 -0.8577327 0.4863347

v 1.9989 -0.843138 -1.447527
vt 0.4450075 0.6521972
vn 0.1666528 -0.8577327 0.4863347

v 1.154121 -1.316437 -1.797705
vt 0.471663 0.6954604
vn -0.003119901 -0.5863369 0.8100615

v 1.9989 -0.843138 -1.447527
vt 0.464986 0.6829143
vn -0.003119901 -0.5863369 0.8100615

v 1.9989 -0.843138 -1.447527
vt 0.4450075 0.6521972
vn -0.004481718 -0.9119981 0.41017

v 0.6083561 2.75841 -0.2365983
vt 0.4639798 0.94218
vn -4.685802E-08 0.716275 0.6978182

v 0.6083561 2.75841 -0.2365983
vt 0.4639798 0.94218
vn 9.402622E-09 0.9983985 -0.05657253

v 0.6083561 1.675772 -19.34311
vt 0.8173063 0.9406638
vn 9.402622E-09 0.9983985 -0.05657253

v 0.6083561 2.80543 -22.41002
vt 0.8746808 0.9403918
vn -5.737801E-08 0.9383683 0.3456371

v 0.6083561 1.675772 -19.34311
vt 0.8173063 0.9406638
vn -5.737801E-08 0.9383683 0.3456371

v 1.388113 -0.5148335 -19.00279
vt 0.5940806 0.09250256
vn -0.005004777 -0.7171772 -0.696873

v 0.02662202 -0.7744079 -18.7217
vt 0.616632 0.08416992
vn -0.005004777 -0.7171772 -0.696873

v 0.02662202 2.80543 -22.41002
vt 0.6167316 0.3069881
vn -0.005004777 -0.7171772 -0.696873

v 0.6083561 2.80543 -22.41002
vt 0.6043929 0.3070112
vn -0.005004777 -0.7171772 -0.696873

v 1.388113 -0.5148335 -19.00279
vt 0.7673398 0.711767
vn 0.08231163 -0.9385586 -0.3351606

v 0.4803592 -1.345268 -17.01167
vt 0.7388306 0.7242537
vn 0.08231163 -0.9385586 -0.3351606

v -0.555112 2.75841 -0.2365983
vt 0.4126155 0.8910179
vn -0.8135822 0.577584 -0.06693826

v -1.33487 -0.5148335 -19.00279
vt 0.760233 0.7737736
vn -0.8135822 0.577584 -0.06693826

v -2.736779 -0.394792 -0.9278882
vt 0.4277947 0.7727057
vn -0.8135822 0.577584 -0.06693826

v 0.6083561 2.75841 -0.2365983
vt 0.4126155 0.8910179
vn 0.94285 0.3326838 -0.01885096

v 1.388113 -0.5148335 -19.00279
vt 0.760233 0.7737736
vn 0.94285 0.3326838 -0.01885096

v 0.6083561 1.675772 -19.34311
vt 0.764172 0.8562214
vn 0.94285 0.3326838 -0.01885096

# 90 vertice(s).

f 1/1/1 2/2/2 3/3/3
f 4/4/4 5/5/5 6/6/6
f 7/7/7 8/8/8 9/9/9
f 10/10/10 11/11/11 12/12/12
f 10/10/10 12/12/12 13/13/13
f 14/14/14 15/15/15 16/16/16
f 14/14/14 16/16/16 17/17/17
f 18/18/18 19/19/19 20/20/20
f 21/21/21 22/22/22 23/23/23
f 24/24/24 25/25/25 26/26/26
f 24/24/24 26/26/26 27/27/27
f 28/28/28 29/29/29 30/30/30
f 31/31/31 32/32/32 33/33/33
f 34/34/34 35/35/35 36/36/36
f 34/34/34 36/36/36 37/37/37
f 38/38/38 39/39/39 40/40/40
f 38/38/38 40/40/40 41/41/41
f 42/42/42 43/43/43 44/44/44
f 42/42/42 44/44/44 45/45/45
f 46/46/46 47/47/47 48/48/48
f 46/46/46 48/48/48 49/49/49
f 50/50/50 51/51/51 52/52/52
f 53/53/53 54/54/54 55/55/55
f 10/10/10 13/13/13 56/56/56
f 10/10/10 56/56/56 57/57/57
f 58/58/58 59/59/59 60/60/60
f 58/58/58 60/60/60 61/61/61
f 62/62/62 63/63/63 64/64/64
f 65/65/65 66/66/66 67/67/67
f 68/68/68 69/69/69 70/70/70
f 71/71/71 72/72/72 26/26/26
f 71/71/71 26/26/26 25/25/25
f 73/73/73 28/28/28 30/30/30
f 31/31/31 74/74/74 32/32/32
f 75/75/75 76/76/76 37/37/37
f 75/75/75 37/37/37 36/36/36
f 77/77/77 41/41/41 40/40/40
f 77/77/77 40/40/40 78/78/78
f 79/79/79 80/80/80 81/81/81
f 79/79/79 81/81/81 82/82/82
f 83/83/83 84/84/84 48/48/48
f 83/83/83 48/48/48 47/47/47
f 85/85/85 86/86/86 87/87/87
f 88/88/88 89/89/89 90/90/90
# 132 indices; 44 primitives.

# 1 primitive groups.

# 1 parts.

