mtllib LOD2.mtl

g Kpr_AttackDroidTEX
usemtl Kpr_AttackDroidTEX

v -1.364252 -0.5148335 -19.00279
vt 0.760233 0.7737736
vn -0.9277202 0.3502707 0.1290182

v -0.5844946 1.675772 -19.34311
vt 0.764172 0.8562214
vn -0.9277202 0.3502707 0.1290182

v -0.5844946 2.80543 -22.41002
vt 0.8204057 0.8996306
vn -0.9277202 0.3502707 0.1290182

v -2.766161 -0.394792 -0.9278882
vt 0.4277947 0.7727057
vn -0.7295256 0.3800911 0.5686152

v -0.002760545 0.6736056 1.903347
vt 0.3735741 0.8119917
vn -0.7295256 0.3800911 0.5686152

v -0.5844946 2.75841 -0.2365983
vt 0.4126155 0.8910179
vn -0.7295256 0.3800911 0.5686152

v 1.124738 -1.316437 -1.797705
vt 0.471663 0.6954604
vn -5.911102E-10 -0.9999982 0.001895075

v -1.130259 -1.316437 -1.797705
vt 0.471663 0.6954604
vn -5.911102E-10 -0.9999982 0.001895075

v -0.4564978 -1.345268 -17.01167
vt 0.7388306 0.7242537
vn -5.911102E-10 -0.9999982 0.001895075

v 0.4509767 -1.345268 -17.01167
vt 0.7388306 0.7242537
vn -5.911102E-10 -0.9999982 0.001895075

v -1.364252 -0.5148335 -19.00279
vt 0.7673398 0.711767
vn -0.5576609 -0.8294875 -0.0310624

v -0.4564978 -1.345268 -17.01167
vt 0.7388306 0.7242537
vn -0.5576609 -0.8294875 -0.0310624

v -1.130259 -1.316437 -1.797705
vt 0.471663 0.6954604
vn -0.5576609 -0.8294875 -0.0310624

v -2.766161 -0.394792 -0.9278882
vt 0.464986 0.6829143
vn -0.5576609 -0.8294875 -0.0310624

v -0.5844946 1.675772 -19.34311
vt 0.764172 0.8562214
vn -0.94285 0.3326838 -0.01885096

v -1.364252 -0.5148335 -19.00279
vt 0.760233 0.7737736
vn -0.94285 0.3326838 -0.01885096

v -0.5844946 2.75841 -0.2365983
vt 0.4126155 0.8910179
vn -0.94285 0.3326838 -0.01885096

v 2.76064 -0.394792 -0.9278882
vt 0.464986 0.6829143
vn 3.921717E-09 -0.6863626 0.7272596

v -2.766161 -0.394792 -0.9278882
vt 0.464986 0.6829143
vn 3.921717E-09 -0.6863626 0.7272596

v -1.130259 -1.316437 -1.797705
vt 0.471663 0.6954604
vn 3.921717E-09 -0.6863626 0.7272596

v 1.124738 -1.316437 -1.797705
vt 0.471663 0.6954604
vn 3.921717E-09 -0.6863626 0.7272596

v -0.002760545 0.6736056 1.903347
vt 0.3759911 0.6947564
vn 5.915303E-10 -0.9356011 0.3530593

v -2.766161 -0.394792 -0.9278882
vt 0.4402598 0.6306953
vn 5.915303E-10 -0.9356011 0.3530593

v 2.76064 -0.394792 -0.9278882
vt 0.4402598 0.6306953
vn 5.915303E-10 -0.9356011 0.3530593

v 0.5789735 2.75841 -0.2365983
vt 0.4639798 0.94218
vn 2.342901E-08 0.7162749 0.6978182

v -0.5844946 2.75841 -0.2365983
vt 0.4639798 0.94218
vn 2.342901E-08 0.7162749 0.6978182

v -0.002760545 0.6736056 1.903347
vt 0.3999993 0.9393004
vn 2.342901E-08 0.7162749 0.6978182

v 0.5789735 1.675772 -19.34311
vt 0.8173063 0.9406638
vn -4.701311E-09 0.9983985 -0.05657254

v -0.5844946 1.675772 -19.34311
vt 0.8173063 0.9406638
vn -4.701311E-09 0.9983985 -0.05657254

v -0.5844946 2.75841 -0.2365983
vt 0.4639798 0.94218
vn -4.701311E-09 0.9983985 -0.05657254

v 0.5789735 2.75841 -0.2365983
vt 0.4639798 0.94218
vn -4.701311E-09 0.9983985 -0.05657254

v 0.5789735 2.80543 -22.41002
vt 0.8746808 0.9403918
vn -2.8689E-08 0.9383683 0.3456371

v -0.5844946 2.80543 -22.41002
vt 0.8746808 0.9403918
vn -2.8689E-08 0.9383683 0.3456371

v -0.5844946 1.675772 -19.34311
vt 0.8173063 0.9406638
vn -2.8689E-08 0.9383683 0.3456371

v 0.5789735 1.675772 -19.34311
vt 0.8173063 0.9406638
vn -2.8689E-08 0.9383683 0.3456371

v 1.358731 -0.5148335 -19.00279
vt 0.5940806 0.09250256
vn -5.851703E-08 -0.7161874 -0.6979081

v -1.364252 -0.5148335 -19.00279
vt 0.5940806 0.09250256
vn -5.851703E-08 -0.7161874 -0.6979081

v -0.5844946 2.80543 -22.41002
vt 0.6043929 0.3070112
vn -5.851703E-08 -0.7161874 -0.6979081

v 0.5789735 2.80543 -22.41002
vt 0.6043929 0.3070112
vn -5.851703E-08 -0.7161874 -0.6979081

v 0.4509767 -1.345268 -17.01167
vt 0.7388306 0.7242537
vn 7.408632E-08 -0.922945 -0.3849321

v -0.4564978 -1.345268 -17.01167
vt 0.7388306 0.7242537
vn 7.408632E-08 -0.922945 -0.3849321

v -1.364252 -0.5148335 -19.00279
vt 0.7673398 0.711767
vn 7.408632E-08 -0.922945 -0.3849321

v 1.358731 -0.5148335 -19.00279
vt 0.7673398 0.711767
vn 7.408632E-08 -0.922945 -0.3849321

v 1.358731 -0.5148335 -19.00279
vt 0.760233 0.7737736
vn 0.9277203 0.3502705 0.1290181

v 0.5789735 2.80543 -22.41002
vt 0.8204057 0.8996306
vn 0.9277203 0.3502705 0.1290181

v 0.5789735 1.675772 -19.34311
vt 0.764172 0.8562214
vn 0.9277203 0.3502705 0.1290181

v 1.358731 -0.5148335 -19.00279
vt 0.7673398 0.711767
vn 0.557661 -0.8294874 -0.0310624

v 2.76064 -0.394792 -0.9278882
vt 0.464986 0.6829143
vn 0.557661 -0.8294874 -0.0310624

v 1.124738 -1.316437 -1.797705
vt 0.471663 0.6954604
vn 0.557661 -0.8294874 -0.0310624

v 0.4509767 -1.345268 -17.01167
vt 0.7388306 0.7242537
vn 0.557661 -0.8294874 -0.0310624

v 2.76064 -0.394792 -0.9278882
vt 0.4277947 0.7727057
vn 0.7295256 0.380091 0.5686151

v 0.5789735 2.75841 -0.2365983
vt 0.4126155 0.8910179
vn 0.7295256 0.380091 0.5686151

v -0.002760545 0.6736056 1.903347
vt 0.3735741 0.8119917
vn 0.7295256 0.380091 0.5686151

v 0.5789735 2.75841 -0.2365983
vt 0.4126155 0.8910179
vn 0.8135822 0.577584 -0.06693825

v 2.76064 -0.394792 -0.9278882
vt 0.4277947 0.7727057
vn 0.8135822 0.577584 -0.06693825

v 1.358731 -0.5148335 -19.00279
vt 0.760233 0.7737736
vn 0.8135822 0.577584 -0.06693825

v -0.5844946 2.75841 -0.2365983
vt 0.4126155 0.8910179
vn -0.8135822 0.577584 -0.06693826

v -1.364252 -0.5148335 -19.00279
vt 0.760233 0.7737736
vn -0.8135822 0.577584 -0.06693826

v -2.766161 -0.394792 -0.9278882
vt 0.4277947 0.7727057
vn -0.8135822 0.577584 -0.06693826

v 0.5789735 2.75841 -0.2365983
vt 0.4126155 0.8910179
vn 0.94285 0.3326838 -0.01885096

v 1.358731 -0.5148335 -19.00279
vt 0.760233 0.7737736
vn 0.94285 0.3326838 -0.01885096

v 0.5789735 1.675772 -19.34311
vt 0.764172 0.8562214
vn 0.94285 0.3326838 -0.01885096

# 62 vertice(s).

f 1/1/1 2/2/2 3/3/3
f 4/4/4 5/5/5 6/6/6
f 7/7/7 8/8/8 9/9/9
f 7/7/7 9/9/9 10/10/10
f 11/11/11 12/12/12 13/13/13
f 11/11/11 13/13/13 14/14/14
f 15/15/15 16/16/16 17/17/17
f 18/18/18 19/19/19 20/20/20
f 18/18/18 20/20/20 21/21/21
f 22/22/22 23/23/23 24/24/24
f 25/25/25 26/26/26 27/27/27
f 28/28/28 29/29/29 30/30/30
f 28/28/28 30/30/30 31/31/31
f 32/32/32 33/33/33 34/34/34
f 32/32/32 34/34/34 35/35/35
f 36/36/36 37/37/37 38/38/38
f 36/36/36 38/38/38 39/39/39
f 40/40/40 41/41/41 42/42/42
f 40/40/40 42/42/42 43/43/43
f 44/44/44 45/45/45 46/46/46
f 47/47/47 48/48/48 49/49/49
f 47/47/47 49/49/49 50/50/50
f 51/51/51 52/52/52 53/53/53
f 54/54/54 55/55/55 56/56/56
f 57/57/57 58/58/58 59/59/59
f 60/60/60 61/61/61 62/62/62
# 78 indices; 26 primitives.

# 1 primitive groups.

# 1 parts.

