# 3ds Max Wavefront OBJ Exporter v0.97b - (c)2007 guruware
# File Created: 04.07.2014 11:55:35

mtllib body2.mtl

#
# object Hgn_BattleCruiser_LOD2_TEX
#

v  129.1502 15.4666 -398.2641
v  48.0717 44.7901 -367.4560
v  129.1492 15.4665 -336.6497
v  76.5266 51.8781 -71.6596
v  141.7816 26.5598 -82.8497
v  130.7592 35.1786 -124.7023
v  80.0817 18.4433 -453.9131
v  49.8592 -5.4992 -444.4345
v  40.6847 33.6315 -457.3139
v  44.2492 27.3020 356.7920
v  93.0682 6.2462 356.7920
v  58.2334 47.7275 0.7011
v  106.4127 16.9915 151.6706
v  115.1895 26.6358 1.0839
v  69.9014 -14.1581 -398.2773
v  29.7330 -14.7133 -420.8434
v  69.9014 -5.4225 -285.6038
v  114.4893 15.4665 -305.1520
v  102.8545 12.4898 -211.1774
v  48.0717 40.4364 -305.1520
v  63.0130 -2.3624 356.7922
v  73.3260 2.3282 455.0844
v  21.2621 15.7172 431.1476
v  20.7065 0.1387 431.1476
v  19.5525 12.3174 462.7236
v  19.5525 1.3304 462.7236
v  140.9197 26.7261 -213.0723
v  130.7592 23.4899 -124.7023
v  140.9198 26.6341 -155.2363
v  -76.6213 51.8781 -213.0730
v  76.6213 51.8781 -213.0730
v  -48.0717 40.4364 -305.1520
v  -20.7152 0.1297 431.1476
v  -63.0130 -2.3624 356.7922
v  -29.7330 -14.7133 -420.8434
v  -69.9014 -14.1581 -398.2773
v  -69.9014 -5.4225 -285.6038
v  -115.1895 26.6358 1.0839
v  -106.4386 17.0153 151.2547
v  -58.2374 47.7305 0.6479
v  -44.2492 27.3020 356.7920
v  -93.0684 6.2462 356.7920
v  -114.4893 15.4665 -305.1520
v  -140.9197 26.7261 -213.0723
v  -80.0817 18.4433 -453.9131
v  -40.6847 33.6315 -457.3139
v  -49.8594 -5.4992 -444.4345
v  -129.1502 15.4666 -398.2641
v  -129.1492 15.4665 -336.6497
v  -48.0717 44.7901 -367.4560
v  -102.8545 12.4898 -211.1774
v  -73.3260 2.3282 455.0844
v  -21.2621 15.7172 431.1476
v  -19.5525 12.3174 462.7236
v  -130.7592 35.1786 -124.7023
v  -140.9198 26.6341 -155.2363
v  -76.5266 51.8781 -71.6596
v  -141.7816 26.5598 -82.8497
v  -130.7592 23.4899 -124.7023
v  -19.5525 1.3304 462.7236
v  12.0267 -4.2814 426.9428
v  -12.0267 -4.2814 426.9428
v  37.8508 -5.4225 -305.1520
v  27.8583 -27.4909 -394.5585
v  28.0082 -18.9555 -304.0327
v  37.8508 -5.4225 -125.5757
v  28.0082 -30.2244 -125.5757
v  24.1966 -15.5723 -105.5065
v  -37.8509 -5.4225 -125.5757
v  -24.1966 -15.5723 -105.5065
v  -28.0082 -18.9555 -304.0327
v  -28.0082 -30.2244 -125.5757
v  -27.8583 -27.4909 -394.5585
v  -37.8508 -5.4225 -305.1520
v  102.8546 12.4898 -285.6038
v  89.6735 -2.1891 -277.1099
v  89.6735 -2.1891 -219.6711
v  69.9014 -5.4225 -211.1773
v  -69.9014 -5.4225 -211.1773
v  -89.6735 -2.1891 -219.6711
v  -69.9013 -5.4225 -285.6038
v  -89.6735 -2.1891 -277.1099
v  -102.8546 12.4898 -285.6038
v  60.8344 3.8549 449.2927
v  60.8344 3.8549 477.5522
v  73.3260 2.3281 455.0843
v  69.8721 2.7013 477.5522
v  61.1224 -31.2392 -342.2892
v  61.1211 -25.6958 -305.1520
v  46.3524 -31.2309 -342.2787
v  46.3511 -25.6954 -305.1520
v  43.1859 -5.4225 -305.1519
v  64.2938 -5.4225 -305.1520
v  61.1238 -13.9970 -354.5340
v  46.3537 -13.8996 -354.5362
v  -46.3512 -25.6954 -305.1521
v  -61.1213 -25.6958 -305.1519
v  -46.3525 -31.2309 -342.2787
v  -61.1224 -31.2392 -342.2893
v  -46.3538 -13.8996 -354.5362
v  -43.1862 -5.4225 -305.1520
v  -64.2941 -5.4225 -305.1517
v  -61.1238 -13.9970 -354.5340
v  28.0737 61.6621 -342.2841
v  28.0736 56.1222 -305.1520
v  44.5426 61.6621 -342.2839
v  44.5426 56.1222 -305.1520
v  44.5426 44.7901 -354.5352
v  28.0737 44.7901 -354.5352
v  24.5446 40.4364 -305.1520
v  -28.0737 61.6621 -342.2841
v  -44.5426 61.6621 -342.2839
v  -28.0737 56.1222 -305.1520
v  -44.5426 56.1222 -305.1520
v  -44.5426 44.7901 -354.5352
v  -28.0737 44.7901 -354.5352
v  -24.5447 40.4364 -305.1520
v  -60.8344 3.8549 449.2927
v  -60.8344 3.8549 477.5523
v  -69.8721 2.7013 477.5523
# 120 vertices

vn 0.3401 0.9404 0.0000
vn 0.3348 0.9412 0.0460
vn 0.3738 0.9230 0.0916
vn -0.0422 -0.3213 -0.9460
vn 0.3951 0.9161 0.0681
vn 0.3802 0.9222 0.0702
vn 0.3688 0.9266 0.0735
vn 0.3555 0.9316 0.0762
vn 0.3457 0.9349 0.0800
vn 0.5047 -0.7819 -0.3658
vn 0.3351 -0.8889 -0.3123
vn 0.2247 -0.9154 -0.3341
vn 0.0505 -0.9441 -0.3256
vn 0.4331 -0.9010 0.0251
vn 0.3924 -0.9196 0.0195
vn 0.3904 -0.9206 -0.0027
vn 0.3171 0.9461 0.0661
vn 0.3326 0.9361 0.1140
vn 0.3473 0.9237 0.1616
vn 0.2484 -0.9684 -0.0223
vn 0.2753 -0.9613 -0.0077
vn 0.2753 -0.9612 0.0170
vn -0.9981 0.0356 -0.0502
vn -0.9989 0.0178 -0.0434
vn -0.9993 0.0000 -0.0365
vn 0.3506 -0.9365 0.0061
vn 0.9670 -0.0000 -0.2547
vn -0.0290 -0.9994 0.0171
vn 0.0486 -0.9982 0.0340
vn 0.0878 -0.9961 0.0121
vn -0.0296 -0.9966 0.0773
vn 0.0875 -0.9953 0.0424
vn 0.1407 -0.0000 0.9901
vn 0.2702 0.9443 -0.1877
vn 0.3190 0.9331 -0.1663
vn 0.3668 0.9191 -0.1443
vn 0.9488 -0.0000 0.3157
vn 0.1724 -0.9835 0.0555
vn 0.4387 -0.8980 -0.0346
vn 0.5105 -0.8581 -0.0556
vn 0.3408 -0.9401 0.0058
vn 0.4615 -0.8871 0.0092
vn 0.5252 -0.8509 0.0146
vn 0.5860 -0.8100 0.0199
vn -0.0000 0.9924 -0.1233
vn 0.0000 0.9924 -0.1233
vn 0.0288 -0.9994 0.0171
vn -0.0879 -0.9961 0.0121
vn -0.0486 -0.9982 0.0340
vn 0.0296 -0.9966 0.0773
vn -0.0875 -0.9953 0.0424
vn -0.3457 0.9349 0.0800
vn -0.3726 0.9251 0.0739
vn -0.3613 0.9295 0.0739
vn -0.3859 0.9198 0.0707
vn -0.3950 0.9157 0.0737
vn -0.3433 0.9131 -0.2199
vn -0.3496 0.9115 -0.2167
vn -0.3559 0.9098 -0.2134
vn 0.0422 -0.3213 -0.9460
vn -0.3401 0.9404 0.0000
vn -0.3171 0.9461 0.0661
vn -0.3326 0.9361 0.1140
vn -0.3473 0.9237 0.1616
vn -0.3924 -0.9196 0.0195
vn -0.4331 -0.9010 0.0251
vn -0.3934 0.9121 0.1154
vn -0.2509 0.9572 0.1443
vn -0.2776 0.9475 0.1586
vn -0.1774 0.9714 0.1576
vn -0.1973 0.9735 0.1155
vn -0.3720 0.9282 -0.0035
vn -0.3681 0.9292 -0.0337
vn -0.4040 0.9133 -0.0505
vn -0.3643 0.9313 0.0015
vn 0.0000 -0.9315 -0.3638
vn -0.3348 0.9412 0.0460
vn -0.3738 0.9230 0.0916
vn -0.3509 -0.9363 0.0138
vn -0.2702 0.9443 -0.1877
vn -0.3190 0.9331 -0.1663
vn -0.3668 0.9191 -0.1443
vn -0.1724 -0.9835 0.0555
vn -0.4387 -0.8980 -0.0346
vn -0.3893 -0.9210 -0.0140
vn -0.5105 -0.8581 -0.0556
vn -0.3408 -0.9401 0.0058
vn -0.3502 -0.9367 -0.0015
vn -0.0000 0.0000 1.0000
vn 0.0000 0.9924 -0.1232
vn -0.0000 0.9924 -0.1232
vn -0.1935 -0.9798 -0.0515
vn -0.2483 -0.9684 -0.0223
vn -0.2346 -0.9712 -0.0420
vn -0.2753 -0.9613 -0.0077
vn -0.4091 -0.8180 -0.4045
vn 0.9981 0.0350 -0.0503
vn 0.9989 0.0175 -0.0435
vn 0.9993 -0.0000 -0.0368
vn -0.9670 0.0000 -0.2547
vn -0.0000 0.9976 0.0697
vn -0.1407 -0.0000 0.9901
vn -0.9488 0.0000 0.3157
vn 0.0001 -0.6894 0.7244
vn 0.0001 -0.6897 0.7241
vn -0.0000 -0.6900 0.7238
vn -0.0000 0.9984 0.0573
vn 0.0000 1.0000 0.0000
vn 0.3768 0.9187 0.1185
vn 0.3600 0.9240 0.1293
vn 0.3430 0.9288 0.1400
vn 0.0000 0.9984 0.0573
vn -0.3768 0.9187 0.1185
vn -0.3599 0.9240 0.1293
vn -0.3430 0.9289 0.1400
vn 0.1937 -0.9797 -0.0515
vn 0.2347 -0.9712 -0.0420
vn -0.4615 -0.8871 0.0092
vn -0.5252 -0.8509 0.0146
vn -0.5860 -0.8100 0.0199
vn 0.2945 0.9557 0.0002
vn 0.3433 0.9131 -0.2199
vn 0.3496 0.9115 -0.2167
vn 0.3559 0.9098 -0.2134
vn 0.4419 0.8912 -0.1023
vn 0.4040 0.9133 -0.0505
vn 0.3643 0.9313 0.0015
vn -0.0211 -0.9987 0.0455
vn -0.0226 -0.9989 0.0422
vn -0.0241 -0.9990 0.0389
vn -0.2753 -0.9612 0.0170
vn 0.0209 -0.9987 0.0455
vn 0.0224 -0.9989 0.0420
vn 0.0240 -0.9990 0.0386
vn 0.9690 -0.2421 -0.0486
vn 0.9069 -0.4214 0.0027
vn 0.8097 -0.5844 0.0538
vn 0.8087 -0.5882 0.0000
vn 0.8866 -0.4434 0.1316
vn 0.8759 -0.4823 -0.0117
vn 0.9113 -0.3617 0.1968
vn 0.8489 -0.3369 0.4072
vn 0.6216 -0.7829 0.0270
vn 0.5350 -0.8444 0.0282
vn 0.4424 -0.8964 0.0291
vn -0.6216 -0.7829 0.0269
vn -0.5345 -0.8447 0.0282
vn -0.4413 -0.8969 0.0291
vn 0.0000 -0.9980 -0.0630
vn -0.0000 -0.8994 -0.4372
vn 0.0000 -0.8994 -0.4372
vn 0.0000 -0.9956 0.0939
vn -0.9690 -0.2421 -0.0486
vn -0.9069 -0.4214 0.0027
vn -0.8097 -0.5844 0.0538
vn 0.0000 -0.8077 0.5897
vn -0.0000 -0.8077 0.5897
vn -0.8087 -0.5882 -0.0000
vn -0.8759 -0.4823 -0.0117
vn -0.8866 -0.4434 0.1316
vn -0.9113 -0.3617 0.1968
vn -0.8489 -0.3369 0.4072
vn 0.0000 -0.9998 0.0212
vn 0.1973 0.9735 0.1155
vn 0.2051 0.9738 0.0986
vn 0.2662 0.9518 0.1523
vn 0.3004 0.9385 0.1705
vn 0.3828 0.8875 0.2566
vn -0.0000 0.9881 0.1539
vn 0.0000 0.9881 0.1539
vn 0.4091 -0.8180 -0.4045
vn -0.5047 -0.7819 -0.3658
vn -0.3351 -0.8889 -0.3123
vn -0.1510 -0.9576 -0.2452
vn -0.4479 -0.8914 0.0691
vn -0.3831 -0.9173 0.1084
vn -0.4053 -0.9113 0.0723
vn -0.3835 -0.9206 0.0739
vn -0.4472 -0.8944 0.0000
vn 0.4479 -0.8914 0.0691
vn 0.4053 -0.9113 0.0723
vn 0.3831 -0.9173 0.1084
vn 0.3835 -0.9206 0.0739
vn 0.4472 -0.8944 0.0000
vn 0.7440 -0.6681 0.0000
vn 0.7440 -0.6681 -0.0000
vn 0.3771 -0.6937 0.6137
vn 0.3771 -0.6937 -0.6137
vn 0.1614 -0.9869 -0.0000
vn -0.3771 -0.6937 0.6137
vn -0.3771 -0.6937 -0.6137
vn -0.1614 -0.9869 -0.0000
vn -0.7440 -0.6681 0.0000
vn -0.7440 -0.6681 -0.0000
vn 0.1213 0.9926 -0.0000
vn 0.1240 0.9923 0.0015
vn 0.1266 0.9919 0.0030
vn -0.1213 -0.9926 0.0000
vn -0.1240 -0.9923 -0.0015
vn -0.1266 -0.9919 -0.0030
vn -0.0004 -0.9890 0.1476
vn -0.0002 -0.9891 0.1475
vn -0.0000 -0.9891 0.1475
vn 0.0000 -0.0000 1.0000
vn -0.0000 -0.0000 1.0000
vn 0.9976 -0.0406 -0.0570
vn 0.9951 -0.0978 -0.0170
vn 0.9877 -0.1546 0.0231
vn -0.0009 -0.5774 -0.8164
vn -0.0023 -0.5782 -0.8159
vn -0.0037 -0.5790 -0.8153
vn -0.9976 -0.0403 -0.0571
vn -0.9951 -0.0975 -0.0171
vn -0.9878 -0.1542 0.0230
vn 0.0000 -0.9891 0.1475
vn 0.0002 -0.9891 0.1475
vn 0.0004 -0.9890 0.1476
vn 0.9976 -0.0403 -0.0571
vn 0.9951 -0.0975 -0.0171
vn 0.9878 -0.1542 0.0230
vn -0.9976 -0.0406 -0.0570
vn -0.9951 -0.0978 -0.0170
vn -0.9877 -0.1546 0.0231
vn 0.0037 -0.5774 -0.8164
vn 0.0023 -0.5782 -0.8159
vn 0.0009 -0.5790 -0.8153
vn -0.0000 0.9891 0.1476
vn 0.0000 0.9891 0.1476
vn -0.0000 0.5876 -0.8092
vn 0.0000 0.5876 -0.8092
vn -0.9966 0.0486 -0.0669
vn -0.9907 0.1347 -0.0172
vn -0.9751 0.2194 0.0327
vn 0.9966 0.0486 -0.0669
vn 0.9907 0.1347 -0.0172
vn 0.9751 0.2194 0.0327
vn -0.1213 0.9926 0.0000
vn -0.1240 0.9923 0.0015
vn -0.1266 0.9919 0.0030
vn 0.1213 -0.9926 -0.0000
vn 0.1240 -0.9923 -0.0015
vn 0.1266 -0.9919 -0.0030
# 242 vertex normals

vt 0.4381 0.0755 0.0000
vt 0.3532 0.1078 0.0000
vt 0.4381 0.1400 0.0000
vt 0.3830 0.4141 0.0000
vt 0.4484 0.4084 0.0000
vt 0.4398 0.3619 0.0000
vt 0.1187 0.4977 0.0000
vt 0.1492 0.5362 0.0000
vt 0.0994 0.5479 0.0000
vt 0.3492 0.8660 0.0000
vt 0.4003 0.8660 0.0000
vt 0.3639 0.4932 0.0000
vt 0.4143 0.6513 0.0000
vt 0.4235 0.4936 0.0000
vt 0.5342 0.0084 0.0000
vt 0.5449 0.0668 0.0000
vt 0.5659 0.0183 0.0000
vt 0.5871 0.0431 0.0000
vt 0.5449 0.1852 0.0000
vt 0.4980 0.1647 0.0000
vt 0.5102 0.2634 0.0000
vt 0.3532 0.1730 0.0000
vt 0.4228 0.1730 0.0000
vt 0.5521 0.8603 0.0000
vt 0.5205 0.8603 0.0000
vt 0.5413 0.9636 0.0000
vt 1.0000 -0.5566 0.0000
vt 0.9869 -0.1903 0.0000
vt 0.9598 -0.4767 0.0000
vt 0.9598 -0.2183 0.0000
vt 0.4702 0.2615 0.0000
vt 0.8694 0.3526 0.0000
vt 0.8564 0.3526 0.0000
vt 0.8660 0.3993 0.0000
vt 0.5966 0.9384 0.0000
vt 0.7832 0.6367 0.0000
vt 0.8033 0.6991 0.0000
vt 0.7760 0.6991 0.0000
vt 0.3867 0.0172 0.0000
vt 0.3455 0.0137 0.0000
vt 0.8659 0.3186 0.0000
vt 0.4973 0.4865 0.0000
vt 0.4693 0.3983 0.0000
vt 0.4809 0.3543 0.0000
vt 0.4702 0.3222 0.0000
vt 0.2227 0.2694 0.0000
vt 0.3831 0.2694 0.0000
vt 0.2526 0.1730 0.0000
vt 0.6401 0.9384 0.0000
vt 0.6845 0.8603 0.0000
vt 0.6496 0.0431 0.0000
vt 0.6918 0.0668 0.0000
vt 0.6918 0.1852 0.0000
vt 0.1823 0.4936 0.0000
vt 0.1915 0.6508 0.0000
vt 0.2419 0.4932 0.0000
vt 0.2566 0.8660 0.0000
vt 0.2055 0.8660 0.0000
vt 0.1830 0.1730 0.0000
vt 0.1554 0.2694 0.0000
vt 0.1187 0.7018 0.0000
vt 0.0994 0.6516 0.0000
vt 0.1492 0.6633 0.0000
vt 0.1677 0.0755 0.0000
vt 0.1677 0.1400 0.0000
vt 0.2526 0.1078 0.0000
vt 0.7386 0.1647 0.0000
vt 0.7264 0.2634 0.0000
vt 0.2261 0.9689 0.0000
vt 0.2806 0.9439 0.0000
vt 0.2824 0.9769 0.0000
vt 0.1660 0.3619 0.0000
vt 0.1554 0.3299 0.0000
vt 0.6707 0.0183 0.0000
vt 0.2228 0.4141 0.0000
vt 0.1544 0.4057 0.0000
vt 0.7664 0.2615 0.0000
vt 0.2190 0.0172 0.0000
vt 0.2603 0.0137 0.0000
vt 0.7394 0.4865 0.0000
vt 0.7673 0.3983 0.0000
vt 0.7557 0.3543 0.0000
vt 0.7664 0.3222 0.0000
vt 0.8118 0.6949 0.0000
vt 0.8118 0.8007 0.0000
vt 0.7730 0.6962 0.0000
vt 0.7730 0.7993 0.0000
vt 0.7302 0.6443 0.0000
vt 0.7161 0.8603 0.0000
vt 0.7540 0.0669 0.0000
vt 0.7025 0.0084 0.0000
vt 0.0000 -0.5566 0.0000
vt 0.0402 -0.4767 0.0000
vt 0.0129 -0.1901 0.0000
vt 0.0402 -0.2183 0.0000
vt 0.7760 0.7964 0.0000
vt 0.8033 0.7964 0.0000
vt 0.7785 0.8573 0.0000
vt 0.7620 0.7178 0.0000
vt 0.7620 0.7777 0.0000
vt 0.5065 0.6447 0.0000
vt 0.4504 0.2694 0.0000
vt 0.4504 0.3299 0.0000
vt 0.6954 0.9636 0.0000
vt 0.6389 0.9716 0.0000
vt 0.5978 0.9716 0.0000
vt 0.9120 0.0224 0.0000
vt 0.9017 0.1514 0.0000
vt 0.9263 0.0517 0.0000
vt 0.9168 0.1526 0.0000
vt 0.9017 0.3516 0.0000
vt 0.9293 0.3516 0.0000
vt 0.9130 0.3740 0.0000
vt 0.8955 0.9724 0.0000
vt 0.9004 0.9677 0.0000
vt 0.5889 0.1659 0.0000
vt 0.5889 0.3534 0.0000
vt 0.6478 0.1659 0.0000
vt 0.6478 0.3534 0.0000
vt 0.6476 0.0708 0.0000
vt 0.5890 0.0708 0.0000
vt 0.6437 0.3745 0.0000
vt 0.5929 0.3745 0.0000
vt 0.6057 0.9340 0.0000
vt 0.6310 0.9340 0.0000
vt 0.3234 0.9769 0.0000
vt 0.3797 0.9689 0.0000
vt 0.3252 0.9439 0.0000
vt 0.4826 0.0669 0.0000
vt 0.7540 0.1316 0.0000
vt 0.4826 0.1316 0.0000
vt 0.5102 0.1852 0.0000
vt 0.5241 0.1942 0.0000
vt 0.5241 0.2545 0.0000
vt 0.5449 0.2634 0.0000
vt 0.6918 0.2634 0.0000
vt 0.7125 0.2545 0.0000
vt 0.7125 0.1942 0.0000
vt 0.7264 0.1852 0.0000
vt 0.5544 0.9575 0.0000
vt 0.5544 0.9872 0.0000
vt 0.5449 0.9872 0.0000
vt 0.5652 0.6126 0.0000
vt 0.5652 0.6300 0.0000
vt 0.5845 0.6126 0.0000
vt 0.5845 0.6252 0.0000
vt 0.5541 0.1257 0.0000
vt 0.5541 0.1647 0.0000
vt 0.5696 0.1257 0.0000
vt 0.5696 0.1647 0.0000
vt 0.6078 0.6802 0.0000
vt 0.5745 0.6750 0.0000
vt 0.6078 0.6456 0.0000
vt 0.5745 0.6508 0.0000
vt 0.9112 0.0963 0.0000
vt 0.9305 0.1100 0.0000
vt 0.9243 0.1514 0.0000
vt 0.3679 0.5454 0.0000
vt 0.3451 0.5454 0.0000
vt 0.3641 0.5252 0.0000
vt 0.3421 0.5252 0.0000
vt 0.9111 0.0963 0.0000
vt 0.6670 0.1647 0.0000
vt 0.6825 0.1647 0.0000
vt 0.6670 0.1257 0.0000
vt 0.6825 0.1257 0.0000
vt 0.6078 0.8220 0.0000
vt 0.6078 0.8566 0.0000
vt 0.5745 0.8272 0.0000
vt 0.5745 0.8514 0.0000
vt 0.3451 0.6671 0.0000
vt 0.3679 0.6671 0.0000
vt 0.3452 0.6865 0.0000
vt 0.3679 0.6865 0.0000
vt 0.3323 0.1341 0.0000
vt 0.3323 0.1730 0.0000
vt 0.3495 0.1341 0.0000
vt 0.3495 0.1730 0.0000
vt 0.2680 0.5478 0.0000
vt 0.2680 0.5694 0.0000
vt 0.2459 0.5478 0.0000
vt 0.2459 0.5694 0.0000
vt 0.6831 0.6722 0.0000
vt 0.7088 0.6780 0.0000
vt 0.6831 0.7108 0.0000
vt 0.7088 0.7050 0.0000
vt 0.8812 0.0963 0.0000
vt 0.8861 0.1514 0.0000
vt 0.8624 0.1100 0.0000
vt 0.8686 0.1514 0.0000
vt 0.2735 0.1341 0.0000
vt 0.2563 0.1341 0.0000
vt 0.2735 0.1730 0.0000
vt 0.2563 0.1730 0.0000
vt 0.2680 0.6647 0.0000
vt 0.2459 0.6647 0.0000
vt 0.2680 0.6431 0.0000
vt 0.2459 0.6431 0.0000
vt 0.6831 0.8300 0.0000
vt 0.6831 0.7914 0.0000
vt 0.7088 0.8242 0.0000
vt 0.7088 0.7972 0.0000
vt 0.6822 0.9575 0.0000
vt 0.6822 0.9872 0.0000
vt 0.6917 0.9872 0.0000
vt 0.5652 0.6125 0.0000
vt 0.5845 0.6125 0.0000
vt 0.5652 0.6299 0.0000
# 208 texture coords

g Hgn_BattleCruiser_LOD2_TEX
usemtl Hgn_BattleCruiser_LOD2_TEX
s 1
f 1/1/1 2/2/1 3/3/1 
f 4/4/2 5/5/3 6/6/2 
f 7/7/4 8/8/4 9/9/4 
f 10/10/5 11/11/6 12/12/7 
f 11/11/6 13/13/8 12/12/7 
f 12/12/7 13/13/8 14/14/9 
f 7/15/10 15/16/11 8/17/12 
f 15/16/11 16/18/13 8/17/12 
f 17/19/14 18/20/15 19/21/16 
f 2/2/17 20/22/18 3/3/18 
f 20/22/18 18/23/19 3/3/18 
f 21/24/20 11/25/21 22/26/22 
f 23/27/23 24/28/24 25/29/24 
f 24/28/24 26/30/25 25/29/24 
f 19/21/16 18/20/15 27/31/26 
f 28/32/27 6/33/27 5/34/27 
f 24/35/28 16/18/29 21/24/30 
f 15/16/31 17/19/32 16/18/29 
f 16/18/29 17/19/32 21/24/30 
f 22/36/33 25/37/33 26/38/33 
f 1/1/34 7/39/35 2/2/35 
f 9/40/36 2/2/35 7/39/35 
f 29/41/37 6/33/37 28/32/37 
f 14/42/38 19/21/16 5/43/39 
f 5/43/39 19/21/16 28/44/40 
f 28/44/40 19/21/16 29/45/41 
f 19/21/16 27/31/26 29/45/41 
f 17/19/42 19/21/43 21/24/43 
f 19/21/43 14/42/44 21/24/43 
f 30/46/45 31/47/46 32/48/46 
f 20/22/46 32/48/46 31/47/46 
f 33/49/47 34/50/48 35/51/49 
f 36/52/50 35/51/49 37/53/51 
f 35/51/49 34/50/48 37/53/51 
f 38/54/52 39/55/53 40/56/54 
f 40/56/54 39/55/53 41/57/55 
f 39/55/53 42/58/56 41/57/55 
f 32/48/57 43/59/58 30/46/58 
f 44/60/59 30/46/58 43/59/58 
f 45/61/60 46/62/60 47/63/60 
f 48/64/61 49/65/61 50/66/61 
f 50/66/62 49/65/63 32/48/63 
f 49/65/63 43/59/64 32/48/63 
f 43/67/65 37/53/66 51/68/65 
f 42/58/67 52/69/68 41/57/69 
f 41/57/69 52/69/68 53/70/70 
f 52/69/68 54/71/71 53/70/70 
f 55/72/72 30/46/73 56/73/74 
f 44/60/75 56/73/74 30/46/73 
f 8/17/12 16/18/13 47/74/76 
f 16/18/13 35/51/76 47/74/76 
f 55/72/72 57/75/77 30/46/73 
f 57/75/77 55/72/72 58/76/78 
f 51/68/65 44/77/79 43/67/65 
f 48/64/80 50/66/81 45/78/81 
f 46/79/82 45/78/81 50/66/81 
f 38/80/83 58/81/84 51/68/85 
f 58/81/84 59/82/86 51/68/85 
f 59/82/86 56/83/87 51/68/85 
f 44/77/88 51/68/85 56/83/87 
f 23/84/89 53/85/89 24/86/89 
f 53/85/89 33/87/89 24/86/89 
f 50/66/90 2/2/91 46/79/91 
f 9/40/91 46/79/91 2/2/91 
f 38/80/92 34/50/93 39/88/94 
f 39/88/94 34/50/93 42/89/95 
f 36/52/96 48/90/96 45/91/96 
f 53/92/97 54/93/98 33/94/98 
f 33/94/98 54/93/98 60/95/99 
f 59/32/100 58/34/100 55/33/100 
f 2/2/101 50/66/101 20/22/101 
f 50/66/101 32/48/101 20/22/101 
f 60/96/102 54/97/102 52/98/102 
f 56/41/103 59/32/103 55/33/103 
f 24/86/104 33/87/105 61/99/105 
f 33/87/105 62/100/106 61/99/105 
f 12/12/107 40/56/107 10/10/107 
f 40/56/107 41/57/107 10/10/107 
f 31/47/108 30/46/108 4/4/108 
f 30/46/108 57/75/108 4/4/108 
f 5/5/109 4/4/110 14/14/110 
f 4/4/110 12/12/111 14/14/110 
f 4/4/112 57/75/107 12/12/107 
f 57/75/107 40/56/107 12/12/107 
f 58/76/113 38/54/114 57/75/114 
f 57/75/114 38/54/114 40/56/115 
f 14/42/116 13/101/117 21/24/20 
f 21/24/20 13/101/117 11/25/21 
f 37/53/118 34/50/119 51/68/119 
f 34/50/119 38/80/120 51/68/119 
f 31/47/121 4/4/2 6/6/2 
f 20/22/122 31/47/123 18/23/123 
f 18/23/123 31/47/123 27/102/124 
f 6/6/125 29/103/126 31/47/126 
f 31/47/126 29/103/126 27/102/127 
f 34/50/128 33/49/129 52/104/129 
f 33/49/129 60/105/130 52/104/129 
f 34/50/93 52/104/131 42/89/95 
f 21/24/132 22/26/133 24/35/133 
f 22/26/133 26/106/134 24/35/133 
f 16/107/135 63/108/136 64/109/136 
f 65/110/137 64/109/136 63/108/136 
f 63/108/138 66/111/139 65/110/140 
f 66/111/139 67/112/141 65/110/140 
f 68/113/142 67/112/141 66/111/139 
f 66/111/143 24/114/144 68/113/144 
f 24/114/144 61/115/145 68/113/144 
f 69/111/146 70/113/147 33/114/147 
f 33/114/147 70/113/147 62/115/148 
f 65/116/149 67/117/149 71/118/149 
f 67/117/149 72/119/149 71/118/149 
f 35/51/150 16/18/151 73/120/151 
f 64/121/151 73/120/151 16/18/151 
f 65/116/152 71/118/152 64/121/152 
f 71/118/152 73/120/152 64/121/152 
f 35/107/153 73/109/154 74/108/154 
f 71/110/155 74/108/154 73/109/154 
f 72/119/156 67/117/156 70/122/156 
f 68/123/157 70/122/156 67/117/156 
f 74/108/158 71/110/159 69/111/160 
f 71/110/159 72/112/161 69/111/160 
f 70/113/162 69/111/160 72/112/161 
f 68/123/163 61/124/163 70/122/163 
f 61/124/163 62/125/163 70/122/163 
f 25/126/164 22/127/165 23/128/166 
f 22/127/165 11/11/167 23/128/166 
f 10/10/168 23/128/166 11/11/167 
f 10/10/169 41/57/170 23/128/170 
f 53/70/170 23/128/170 41/57/170 
f 7/15/171 1/129/171 15/16/171 
f 45/91/172 47/74/173 36/52/173 
f 36/52/173 47/74/173 35/51/174 
f 37/53/175 43/67/176 36/52/177 
f 43/67/176 49/130/178 36/52/177 
f 36/52/177 49/130/178 48/90/179 
f 17/19/180 15/16/181 18/20/182 
f 18/20/182 15/16/181 3/131/183 
f 15/16/181 1/129/184 3/131/183 
f 75/132/185 19/21/185 76/133/185 
f 19/21/185 77/134/186 76/133/185 
f 78/135/187 77/134/187 19/21/187 
f 17/19/188 75/132/188 76/133/188 
f 78/135/189 17/19/189 77/134/189 
f 77/134/189 17/19/189 76/133/189 
f 79/136/190 51/68/190 80/137/190 
f 81/53/191 82/138/191 83/139/191 
f 81/53/192 79/136/192 82/138/192 
f 80/137/192 82/138/192 79/136/192 
f 51/68/193 83/139/193 80/137/193 
f 83/139/193 82/138/194 80/137/193 
f 84/140/195 85/141/196 86/26/196 
f 85/141/196 87/142/197 86/26/196 
f 84/143/198 86/144/199 85/145/199 
f 86/144/199 87/146/200 85/145/199 
f 88/147/201 89/148/202 90/149/202 
f 90/149/202 89/148/202 91/150/203 
f 92/151/204 91/152/205 93/153/205 
f 91/152/205 89/154/89 93/153/205 
f 94/155/206 93/108/207 88/156/207 
f 89/157/208 88/156/207 93/108/207 
f 90/158/209 95/159/210 88/160/210 
f 88/160/210 95/159/210 94/161/211 
f 95/162/212 90/156/213 92/108/213 
f 92/108/213 90/156/213 91/157/214 
f 96/163/215 97/164/216 98/165/216 
f 98/165/216 97/164/216 99/166/217 
f 100/162/218 101/108/219 98/156/219 
f 101/108/219 96/157/220 98/156/219 
f 101/167/204 102/168/204 96/169/204 
f 102/168/204 97/170/204 96/169/204 
f 103/155/221 99/156/222 102/108/222 
f 97/157/223 102/108/222 99/156/222 
f 100/171/224 98/172/225 103/173/225 
f 99/174/226 103/173/225 98/172/225 
f 104/175/227 105/176/227 106/177/227 
f 105/176/227 107/178/228 106/177/227 
f 108/179/229 109/180/230 106/181/230 
f 109/180/230 104/182/230 106/181/230 
f 20/183/204 107/184/205 110/185/205 
f 107/184/205 105/186/89 110/185/205 
f 109/187/231 110/188/232 104/189/232 
f 105/190/233 104/189/232 110/188/232 
f 108/187/234 106/189/235 20/188/235 
f 107/190/236 20/188/235 106/189/235 
f 111/191/228 112/192/228 113/193/228 
f 112/192/228 114/194/228 113/193/228 
f 115/195/230 112/196/229 116/197/229 
f 112/196/229 111/198/229 116/197/229 
f 32/199/89 117/200/89 114/201/89 
f 117/200/89 113/202/89 114/201/89 
f 116/187/234 111/189/235 117/188/235 
f 113/190/236 117/188/235 111/189/235 
f 115/187/231 32/188/232 112/189/232 
f 114/190/233 112/189/232 32/188/232 
f 118/203/237 52/104/238 119/204/238 
f 52/104/238 120/205/239 119/204/238 
f 118/206/240 119/207/241 52/208/241 
f 52/208/241 119/207/241 120/146/242 
# 0 polygons - 198 triangles

#
# object thruster
#

v  49.8592 -5.4992 -444.4345
v  -49.8594 -5.4992 -444.4345
v  40.6847 33.6315 -457.3139
v  -40.6847 33.6315 -457.3139
# 4 vertices

vn -0.0000 -0.3126 -0.9499
vn 0.0000 -0.3126 -0.9499
# 2 vertex normals

vt 2.0737 1.0782 0.0000
vt -1.0737 1.0782 0.0000
vt 2.0144 -1.0981 0.0000
vt -1.0144 -1.0981 0.0000
# 4 texture coords

g thruster
usemtl thruster
s 1
f 121/209/243 122/210/244 123/211/244 
f 122/210/244 124/212/244 123/211/244 
# 0 polygons - 2 triangles

