mtllib LOD2.mtl

g Kpr_AttackDroidTEX
usemtl Kpr_AttackDroidTEX

v 3.090048 -2.400537 11.713
vt 0.2448449 0.5388354
vn 0.02317711 -0.9997314 2.963491E-08

v 4.68239 -2.363622 11.3818
vt 0.1931372 0.5619723
vn 0.02317711 -0.9997314 2.963491E-08

v 4.682388 -2.363622 13.25408
vt 0.1931371 0.4386929
vn 0.02317711 -0.9997314 2.963491E-08

v 3.090048 -2.400537 14.12588
vt 0.2448448 0.3959618
vn 0.02317711 -0.9997314 2.963491E-08

v 4.68239 -2.363622 11.3818
vt 0.1931372 0.5619723
vn 0.6394231 0.7688552 2.93806E-07

v 3.246256 -1.169254 11.82016
vt 0.257585 0.535006
vn 0.6394231 0.7688552 2.93806E-07

v 3.246256 -1.169254 14.12588
vt 0.257585 0.387456
vn 0.7053452 0.4458793 0.5510716

v 4.682388 -2.363622 13.25408
vt 0.1931371 0.4386929
vn 0.7053452 0.4458793 0.5510716

v 3.246256 -1.169254 14.12588
vt 0.1195116 0.5589658
vn 0.7053452 0.4458793 0.5510716

v 3.090048 -2.400537 14.12588
vt 0.1194805 0.5021707
vn 0.4804263 -0.06094988 0.8749147

v 4.682388 -2.363622 13.25408
vt 0.1615544 0.5304755
vn 0.7053452 0.4458793 0.5510716

v 3.246256 -1.169254 11.82016
vt 0.2607855 0.5312502
vn -0.9920484 0.1258573 2.760597E-09

v 3.090048 -2.400537 11.713
vt 0.2448449 0.5388354
vn -0.9920484 0.1258573 2.760597E-09

v 3.090048 -2.400537 14.12588
vt 0.2448448 0.3959618
vn -0.9920484 0.1258573 2.760597E-09

v 3.246256 -1.169254 14.12588
vt 0.2607855 0.3789617
vn -0.9920484 0.1258573 2.760597E-09

v -3.095566 -2.400537 11.713
vt 0.2448449 0.5388354
vn -0.02317711 -0.9997314 -9.201366E-09

v -3.095566 -2.400537 14.12588
vt 0.2448448 0.3959618
vn -0.02317711 -0.9997314 -9.201366E-09

v -4.687907 -2.363622 13.25408
vt 0.1931371 0.4386929
vn -0.02317711 -0.9997314 -9.201366E-09

v -4.687907 -2.363622 11.3818
vt 0.1931372 0.5619723
vn -0.02317711 -0.9997314 -9.201366E-09

v -4.687907 -2.363622 11.3818
vt 0.1931372 0.5619723
vn -0.6394228 0.7688555 -1.709286E-07

v -4.687907 -2.363622 13.25408
vt 0.1931371 0.4386929
vn -0.705345 0.4458794 0.5510716

v -3.251774 -1.169254 14.12588
vt 0.2484908 0.3917032
vn -0.705345 0.4458794 0.5510716

v -3.251773 -1.169254 11.82016
vt 0.2528092 0.535006
vn -0.6394228 0.7688555 -1.709286E-07

v -3.251774 -1.169254 14.12588
vt 0.1195116 0.5589658
vn -0.705345 0.4458794 0.5510716

v -4.687907 -2.363622 13.25408
vt 0.1615544 0.5304755
vn -0.705345 0.4458794 0.5510716

v -3.095566 -2.400537 14.12588
vt 0.1194805 0.5021707
vn -0.4804258 -0.06095021 0.8749149

v -3.251773 -1.169254 11.82016
vt 0.2607855 0.5312502
vn 0.9920484 0.1258573 2.50023E-07

v -3.251774 -1.169254 14.12588
vt 0.2607855 0.3789617
vn 0.9920484 0.1258573 2.50023E-07

v -3.095566 -2.400537 14.12588
vt 0.2448448 0.3959618
vn 0.9920484 0.1258573 2.50023E-07

v -3.095566 -2.400537 11.713
vt 0.2448449 0.5388354
vn 0.9920484 0.1258573 2.50023E-07

v -1.46195 -0.3842125 11.02209
vt 0.03516139 0.4393842
vn 0.004928098 0.8114451 0.5844079

v -0.002758835 -1.543941 12.62005
vt 0.02148438 0.3613281
vn -3.150237E-07 0.8114549 0.5844151

v -0.002759789 -1.147186 12.06916
vt 0.01982154 0.3909117
vn -3.150237E-07 0.8114549 0.5844151

v -1.46195 -0.3842125 11.02209
vt 0.04728533 0.7919109
vn -0.1320551 -0.99124 -0.002204118

v -0.002759789 -0.5812073 12.19054
vt 0.02275631 0.7516985
vn 1.208574E-07 -0.9962536 0.08648068

v -0.5402659 -0.5101852 12.45397
vt 0.01707442 0.7602575
vn -0.06675755 -0.9892008 0.1304812

v -1.46195 -0.3842125 11.02209
vt 0.04728533 0.7919109
vn -0.2263288 -0.9716852 -0.06784717

v -3.763258 1.044067 -1.756428
vt 0.3235801 0.9018551
vn -0.2263288 -0.9716852 -0.06784717

v -1.959808 0.5879377 -1.239947
vt 0.3124401 0.8226231
vn -0.2263288 -0.9716852 -0.06784717

v 1.954291 0.5879377 -1.239947
vt 0.935862 0.8312539
vn 7.32365E-09 -0.6692245 -0.7430604

v -1.959808 0.5879377 -1.239947
vt 0.935862 0.8312539
vn 7.32365E-09 -0.6692245 -0.7430604

v -3.763258 1.044067 -1.756428
vt 0.8884974 0.8553089
vn 7.32365E-09 -0.6692245 -0.7430604

v -1.771917 3.394672 -3.764194
vt 0.9407966 0.9792727
vn 7.32365E-09 -0.6692245 -0.7430604

v 1.766398 3.394672 -3.764194
vt 0.9407966 0.9792727
vn 7.32365E-09 -0.6692245 -0.7430604

v 3.757738 1.044067 -1.756428
vt 0.8884974 0.8553089
vn 7.32365E-09 -0.6692245 -0.7430604

v -0.9156493 4.561756 -0.7721822
vt 0.3131035 0.9293827
vn -1.02219E-09 0.9994267 0.03385597

v -0.7339019 4.362999 5.095121
vt 0.1918856 0.9364426
vn -1.346881E-08 0.9688069 0.2478169

v 0.7283841 4.362999 5.095121
vt 0.1918856 0.9364426
vn -1.346881E-08 0.9688069 0.2478169

v 0.9101316 4.561756 -0.7721822
vt 0.3131035 0.9293827
vn -1.02219E-09 0.9994267 0.03385597

v -1.771917 3.394672 -3.764194
vt 0.3739286 0.8954924
vn 1.19944E-08 0.9316337 -0.3633991

v -0.9156493 4.561756 -0.7721822
vt 0.3131035 0.9293827
vn 1.19944E-08 0.9316337 -0.3633991

v 0.9101316 4.561756 -0.7721822
vt 0.3131035 0.9293827
vn 1.19944E-08 0.9316337 -0.3633991

v 1.766398 3.394672 -3.764194
vt 0.3739286 0.8954924
vn 1.19944E-08 0.9316337 -0.3633991

v -0.002759789 0.8924122 11.97868
vt 0.0272222 0.6964297
vn -0.7376781 0.5538158 0.3861594

v -0.7339019 4.362999 5.095121
vt 0.1798927 0.8000445
vn -0.7376781 0.5538158 0.3861594

v -1.46195 -0.3842125 11.02209
vt 0.04786384 0.6237057
vn -0.7376781 0.5538158 0.3861594

v -0.5402659 -0.5101852 12.45397
vt 0.01503589 0.6431364
vn -0.7376781 0.5538158 0.3861594

v -0.002759789 0.8924122 11.97868
vt 0.03925956 0.9553771
vn -2.528622E-08 0.8929275 0.4502006

v -1.46195 -0.3842125 11.02209
vt 0.4666649 0.5952494
vn -0.6300132 -0.1628387 0.75932

v -0.002759789 -1.147186 12.06916
vt 0.5525504 0.5168085
vn 1.535046E-07 -0.2096858 0.9777688

v -0.002759789 -0.5812073 12.19054
vt 0.5525504 0.5952494
vn 1.535046E-07 -0.2096858 0.9777688

v 0.5347463 -0.5101852 12.45397
vt 0.01707442 0.7602575
vn 0.06675782 -0.9892007 0.1304812

v -0.002759789 0.8924122 11.97868
vt 0.0272222 0.6964297
vn 0.7376781 0.5538157 0.3861595

v 0.5347463 -0.5101852 12.45397
vt 0.01503589 0.6431364
vn 0.7376781 0.5538157 0.3861595

v 1.456431 -0.3842125 11.02209
vt 0.04786384 0.6237057
vn 0.7376781 0.5538157 0.3861595

v 0.7283841 4.362999 5.095121
vt 0.1798927 0.8000445
vn 0.7376781 0.5538157 0.3861595

v 1.456431 -0.3842125 11.02209
vt 0.03516139 0.4393842
vn -0.004928728 0.811445 0.584408

v 1.456431 -0.3842125 11.02209
vt 0.04728533 0.7919109
vn 0.1320552 -0.9912399 -0.002204141

v -0.5402659 -0.5101852 12.45397
vt 0.01333727 0.9456827
vn -2.438686E-08 0.3209362 0.9471009

v 0.5347463 -0.5101852 12.45397
vt 0.01333727 0.9456827
vn -2.438686E-08 0.3209362 0.9471009

v -0.002759789 0.8924122 11.97868
vt 0.03925956 0.9553771
vn -2.438686E-08 0.3209362 0.9471009

v 1.456431 -0.3842125 11.02209
vt 0.04728533 0.7919109
vn 0.2263292 -0.9716851 -0.0678471

v 1.954291 0.5879377 -1.239947
vt 0.3124401 0.8226231
vn 0.2263292 -0.9716851 -0.0678471

v 3.757738 1.044067 -1.756428
vt 0.3235801 0.9018551
vn 0.2263292 -0.9716851 -0.0678471

v 3.757738 1.044067 -1.756428
vt 0.321484 0.6094189
vn 0.6569672 0.727024 0.1995754

v 1.766398 3.394672 -3.764194
vt 0.3619357 0.7380507
vn 0.6569672 0.727024 0.1995754

v 1.456431 -0.3842125 11.02209
vt 0.04786384 0.6237057
vn 0.6569672 0.727024 0.1995754

v 1.456431 -0.3842125 11.02209
vt 0.6384358 0.5952494
vn 0.6300135 -0.1628387 0.7593198

v -1.46195 -0.3842125 11.02209
vt 0.04786384 0.6237057
vn -0.6569672 0.7270239 0.1995754

v -1.771917 3.394672 -3.764194
vt 0.3619357 0.7380507
vn -0.6569672 0.7270239 0.1995754

v -3.763258 1.044067 -1.756428
vt 0.321484 0.6094189
vn -0.6569672 0.7270239 0.1995754

v 0.7283841 4.362999 5.095121
vt 0.1798927 0.8000445
vn 0.8559123 0.5152485 0.04396722

v 1.766398 3.394672 -3.764194
vt 0.3619357 0.7380507
vn 0.8559123 0.5152485 0.04396722

v 0.9101316 4.561756 -0.7721822
vt 0.3011106 0.8000445
vn 0.8559123 0.5152485 0.04396722

v 1.456431 -0.3842125 11.02209
vt 0.04786384 0.6237057
vn 0.9634443 0.2540276 0.08511791

v 1.766398 3.394672 -3.764194
vt 0.3619357 0.7380507
vn 0.9634443 0.2540276 0.08511791

v 0.7283841 4.362999 5.095121
vt 0.1798927 0.8000445
vn 0.9634443 0.2540276 0.08511791

v -1.771917 3.394672 -3.764194
vt 0.3619357 0.7380507
vn -0.8559117 0.5152495 0.04396728

v -0.7339019 4.362999 5.095121
vt 0.1798927 0.8000445
vn -0.8559117 0.5152495 0.04396728

v -0.9156493 4.561756 -0.7721822
vt 0.3011106 0.8000445
vn -0.8559117 0.5152495 0.04396728

v -1.46195 -0.3842125 11.02209
vt 0.04786384 0.6237057
vn -0.9634442 0.2540282 0.08511806

v -0.7339019 4.362999 5.095121
vt 0.1798927 0.8000445
vn -0.9634442 0.2540282 0.08511806

v -1.771917 3.394672 -3.764194
vt 0.3619357 0.7380507
vn -0.9634442 0.2540282 0.08511806

v -2.793295 -1.202505 13.22134
vt 0.7648875 0.1008561
vn 0.9554809 0.195338 0.2211319

v -2.464733 -2.051535 13.22134
vt 0.7647715 0.1393612
vn 0.9554809 0.195338 0.2211319

v -0.8907946 -2.564182 6.203737
vt 0.8778949 0.1487602
vn 0.9554809 0.195338 0.2211319

v -1.523004 -0.5959473 7.866455
vt 0.8778427 0.09729681
vn 0.9554809 0.195338 0.2211319

v -6.444906 -2.162018 -2.606485
vt 0.9653339 0.4239772
vn -0.9442632 -0.3162537 0.09138165

v -5.950708 -3.630619 -2.606485
vt 0.9652528 0.3595301
vn -0.9442632 -0.3162537 0.09138165

v -4.867924 -2.847446 11.31662
vt 0.6752263 0.3774453
vn -0.9442632 -0.3162537 0.09138165

v -5.130981 -2.055052 11.31662
vt 0.6752613 0.4121712
vn -0.9442632 -0.3162537 0.09138165

v -1.554033 -2.902479 -2.510098
vt 0.8988961 0.6558952
vn 0.4523629 0.1553119 -0.8782061

v -2.528965 0.0753212 -2.510098
vt 0.8998457 0.8211274
vn 0.4523629 0.1553119 -0.8782061

v -1.445558 -0.5441418 -1.226701
vt 0.921543 0.7717963
vn 0.783057 0.2691187 -0.560711

v -0.9959983 -1.711197 -1.226701
vt 0.9228481 0.7058931
vn 0.783057 0.2691187 -0.560711

v -3.026723 -0.9078693 11.8427
vt 0.6647847 0.5060643
vn -0.4928738 0.8691267 0.04115932

v -2.528965 0.0753212 -2.510098
vt 0.9638193 0.4810879
vn -0.4928738 0.8691267 0.04115932

v -6.444906 -2.162018 -2.606485
vt 0.9722438 0.6412444
vn -0.4928738 0.8691267 0.04115932

v -5.130981 -2.055052 11.31662
vt 0.6737868 0.6037576
vn -0.4928738 0.8691267 0.04115932

v -6.444906 -2.162018 -2.606485
vt 0.7980559 0.7848613
vn 0.02074043 0.00685282 -0.9997614

v -5.950708 -3.630619 -2.606485
vt 0.7834187 0.6942261
vn 0.02074043 0.00685282 -0.9997614

v -1.445558 -0.5441418 -1.226701
vt 0.9352412 0.4435451
vn 0.1665832 0.9848797 0.04756325

v -2.528965 0.0753212 -2.510098
vt 0.9638193 0.4810879
vn 0.1665832 0.9848797 0.04756325

v -3.026723 -0.9078693 11.8427
vt 0.6647847 0.5060643
vn 0.2020738 0.9735807 0.1063334

v -1.523004 -0.5959473 7.866455
vt 0.7470971 0.4435448
vn 0.2020738 0.9735807 0.1063334

v -0.9959983 -1.711197 -1.226701
vt 0.9174962 0.3476009
vn 0.9462988 -0.2905563 -0.1417592

v -0.8574354 -2.564182 1.446579
vt 0.8808661 0.3422292
vn 0.9462988 -0.2905563 -0.1417592

v -1.554033 -2.902479 -2.510098
vt 0.9635012 0.3082402
vn 0.9462988 -0.2905563 -0.1417592

v -5.950708 -3.630619 -2.606485
vt 0.9631853 0.1240278
vn 0.1527494 -0.9875794 0.0368047

v -1.554033 -2.902479 -2.510098
vt 0.9635012 0.3082402
vn 0.1527494 -0.9875794 0.0368047

v -0.8574354 -2.564182 1.446579
vt 0.8808661 0.3422292
vn 0.1527494 -0.9875794 0.0368047

v -0.8907946 -2.564182 6.203737
vt 0.763779 0.3460029
vn 0.3175898 -0.9426098 0.1030703

v -4.867924 -2.847446 11.31662
vt 0.6740546 0.1841351
vn 0.1563015 -0.9862708 0.05328814

v -2.499526 -2.425798 11.8427
vt 0.6643018 0.2839924
vn 0.3987102 -0.9069361 0.1360043

v -3.026723 -0.9078693 11.8427
vt 0.105141 0.4082545
vn -0.9356354 -0.3382728 0.1007858

v -2.499526 -2.425798 11.8427
vt 0.09608036 0.2946546
vn -0.9356354 -0.3382728 0.1007858

v -2.464733 -2.051535 13.22134
vt 0.0474075 0.3195577
vn -0.9356354 -0.3382728 0.1007858

v -2.793295 -1.202505 13.22134
vt 0.04780146 0.3838222
vn -0.9356354 -0.3382728 0.1007858

v -2.464733 -2.051535 13.22134
vt 0.6350315 0.2912313
vn 0.6106958 -0.7679676 0.193071

v -2.793295 -1.202505 13.22134
vt 0.6354351 0.4992816
vn 0.2365861 0.9575686 0.1645889

v 0.9904805 -1.711197 -1.226701
vt 0.9611748 0.7100042
vn -1.126776E-08 -0.005761254 -0.9999834

v -0.9959964 -1.711197 -1.226701
vt 0.9611748 0.7100042
vn -1.126776E-08 -0.005761254 -0.9999834

v -1.959808 0.5879377 -1.239947
vt 0.935862 0.8312539
vn -1.126776E-08 -0.005761254 -0.9999834

v 1.954291 0.5879377 -1.239947
vt 0.935862 0.8312539
vn -1.126776E-08 -0.005761254 -0.9999834

v 6.439386 -2.162018 -2.606485
vt 0.9653339 0.4239772
vn 0.9442628 -0.3162552 0.0913817

v 5.125463 -2.055052 11.31662
vt 0.6752613 0.4121712
vn 0.9442628 -0.3162552 0.0913817

v 4.862402 -2.847446 11.31662
vt 0.6752263 0.3774453
vn 0.9442628 -0.3162552 0.0913817

v 5.945189 -3.630619 -2.606485
vt 0.9652528 0.3595301
vn 0.9442628 -0.3162552 0.0913817

v 1.517485 -0.5959473 7.866455
vt 0.8778427 0.09729681
vn -0.955481 0.1953374 0.2211321

v 0.885275 -2.564182 6.203737
vt 0.8778949 0.1487602
vn -0.955481 0.1953374 0.2211321

v 2.459215 -2.051535 13.22134
vt 0.7647715 0.1393612
vn -0.955481 0.1953374 0.2211321

v 2.787775 -1.202505 13.22134
vt 0.7648875 0.1008561
vn -0.955481 0.1953374 0.2211321

v 1.440039 -0.5441418 -1.226701
vt 0.9352412 0.4435451
vn -0.1665829 0.9848796 0.04756324

v 1.517485 -0.5959473 7.866455
vt 0.7470971 0.4435448
vn -0.2020736 0.9735808 0.1063334

v 3.021204 -0.9078693 11.8427
vt 0.6647847 0.5060643
vn -0.2020736 0.9735808 0.1063334

v 2.523447 0.0753212 -2.510098
vt 0.9638193 0.4810879
vn -0.1665829 0.9848796 0.04756324

v 1.548514 -2.902479 -2.510098
vt 0.8988961 0.6558952
vn -0.4523629 0.1553119 -0.8782061

v 0.9904805 -1.711197 -1.226701
vt 0.9228481 0.7058931
vn -0.783057 0.2691188 -0.560711

v 1.440039 -0.5441418 -1.226701
vt 0.921543 0.7717963
vn -0.783057 0.2691188 -0.560711

v 2.523447 0.0753212 -2.510098
vt 0.8998457 0.8211274
vn -0.4523629 0.1553119 -0.8782061

v 6.439386 -2.162018 -2.606485
vt 0.7980559 0.7848613
vn -0.02074047 0.006852834 -0.9997614

v 5.945189 -3.630619 -2.606485
vt 0.7834187 0.6942261
vn -0.02074047 0.006852834 -0.9997614

v 2.494009 -2.425798 11.8427
vt 0.6643018 0.2839924
vn -0.3987098 -0.9069363 0.1360042

v 2.459215 -2.051535 13.22134
vt 0.6350315 0.2912313
vn -0.6106948 -0.7679684 0.1930708

v 0.885275 -2.564182 6.203737
vt 0.763779 0.346025
vn -0.3175896 -0.9426099 0.1030703

v 5.945189 -3.630619 -2.606485
vt 0.9631853 0.1240278
vn -0.1527494 -0.9875795 0.03680469

v 4.862402 -2.847446 11.31662
vt 0.6740546 0.1841351
vn -0.1563017 -0.9862708 0.05328818

v 0.8519155 -2.564182 1.44658
vt 0.8808661 0.3422734
vn -0.1527494 -0.9875795 0.03680469

v 1.548514 -2.902479 -2.510098
vt 0.9635012 0.3082402
vn -0.1527494 -0.9875795 0.03680469

v 3.021204 -0.9078693 11.8427
vt 0.09648774 0.4081103
vn 0.2050498 -0.07013825 0.9762352

v 2.494009 -2.425798 11.8427
vt 0.1049865 0.2943468
vn 0.2050498 -0.07013825 0.9762352

v 4.862402 -2.847446 11.31662
vt 0.1908437 0.3208615
vn 0.2050498 -0.07013825 0.9762352

v 5.125463 -2.055052 11.31662
vt 0.1905327 0.38004
vn 0.2050498 -0.07013825 0.9762352

v 3.021204 -0.9078693 11.8427
vt 0.6647847 0.5060643
vn 0.4928738 0.8691267 0.04115931

v 5.125463 -2.055052 11.31662
vt 0.6737868 0.6037576
vn 0.4928738 0.8691267 0.04115931

v 6.439386 -2.162018 -2.606485
vt 0.9722438 0.6412444
vn 0.4928738 0.8691267 0.04115931

v 2.523447 0.0753212 -2.510098
vt 0.9638193 0.4810879
vn 0.4928738 0.8691267 0.04115931

v 0.9904805 -1.711197 -1.226701
vt 0.9174962 0.3476009
vn -0.9462993 -0.2905547 -0.1417595

v 1.548514 -2.902479 -2.510098
vt 0.9635012 0.3082402
vn -0.9462993 -0.2905547 -0.1417595

v 0.8519155 -2.564182 1.44658
vt 0.8808661 0.3422734
vn -0.9462993 -0.2905547 -0.1417595

v 2.787775 -1.202505 13.22134
vt 0.6354351 0.4992816
vn -0.236586 0.9575686 0.1645888

v -0.4974802 -4.225654 11.3291
vt 0.04771361 0.04639814
vn 4.979302E-07 -0.9999821 0.005987677

v -0.463518 -4.337892 -7.415494
vt 0.4483404 0.04677622
vn 4.979302E-07 -0.9999821 0.005987677

v 0.4579984 -4.337892 -7.415494
vt 0.4483404 0.04677622
vn 4.979302E-07 -0.9999821 0.005987677

v 0.4919607 -4.225653 11.3291
vt 0.04771361 0.04639814
vn 4.979302E-07 -0.9999821 0.005987677

v -0.463518 -4.337892 -7.415494
vt 0.4483404 0.04677622
vn 2.091468E-07 -0.7372065 -0.6756676

v -0.7719249 -2.965685 -8.91268
vt 0.4756501 0.06072508
vn 2.091468E-07 -0.7372065 -0.6756676

v 0.7664052 -2.965685 -8.91268
vt 0.4756501 0.06072508
vn 2.091468E-07 -0.7372065 -0.6756676

v 0.4579984 -4.337892 -7.415494
vt 0.4483404 0.04677622
vn 2.091468E-07 -0.7372065 -0.6756676

v 0.7664052 -2.965685 -8.91268
vt 0.5099428 0.1853252
vn 1.074156E-06 0.9869404 -0.1610862

v -0.7719249 -2.965685 -8.91268
vt 0.5099428 0.1853252
vn 1.074156E-06 0.9869404 -0.1610862

v -0.9959944 -1.711195 -1.226701
vt 0.3434476 0.1755785
vn 1.074156E-06 0.9869404 -0.1610862

v 0.9904805 -1.711199 -1.226701
vt 0.3434476 0.1755785
vn 1.074156E-06 0.9869404 -0.1610862

v -0.002759804 -2.449162 12.743
vt 0.02148438 0.3105469
vn -2.613304E-08 -0.6227363 0.7824318

v -0.4974802 -4.225654 11.3291
vt 0.02148438 0.2128906
vn -2.613304E-08 -0.6227363 0.7824318

v 0.4919607 -4.225653 11.3291
vt 0.02148438 0.2128906
vn -2.613304E-08 -0.6227363 0.7824318

v -0.002759804 -2.449162 12.743
vt 0.01574489 0.136196
vn -0.7834203 0.08364572 0.6158378

v -0.002758835 -1.543941 12.62005
vt 0.01751051 0.1710833
vn -0.8185727 -0.153298 0.553569

v -1.427622 -0.8307438 10.71059
vt 0.0600618 0.2119923
vn -0.910206 -0.1397458 0.3898669

v -1.46195 -0.3842125 11.02209
vt 0.05284772 0.2210509
vn -0.9343385 -0.2494145 0.2545666

v -1.427622 -0.8307438 10.71059
vt 0.0600618 0.2119923
vn -0.9450036 -0.2125722 0.2485585

v -1.959808 0.5879377 -1.239947
vt 0.315044 0.276208
vn -0.9646701 -0.263388 -0.006194254

v -1.44556 -0.5441437 -1.226701
vt 0.3146107 0.2261896
vn -0.9646701 -0.263388 -0.006194254

v -0.9959944 -1.711195 -1.226701
vt 0.3138492 0.1755316
vn -0.9646701 -0.263388 -0.006194254

v -0.7719249 -2.965685 -8.91268
vt 0.4794113 0.1267679
vn -0.9646701 -0.263388 -0.006194254

v -0.463518 -4.337892 -7.415494
vt 0.4480637 0.06991716
vn -0.9646701 -0.263388 -0.006194254

v -0.4974802 -4.225654 11.3291
vt 0.04794622 0.06991716
vn -0.9450036 -0.2125722 0.2485585

v -0.002759804 -2.449162 12.743
vt 0.01574489 0.136196
vn -0.8612016 -0.1473297 0.4864422

v -0.002759804 -2.449162 12.743
vt 0.01574489 0.136196
vn 0.7834206 0.08364401 0.6158376

v 1.422102 -0.8307438 10.71059
vt 0.0600618 0.2119923
vn 0.910206 -0.1397463 0.3898667

v -0.002758835 -1.543941 12.62005
vt 0.01751051 0.1710833
vn 0.8185728 -0.1532987 0.5535685

v 1.954291 0.5879377 -1.239947
vt 0.315044 0.276208
vn 0.9945415 -0.09914433 0.03251991

v 1.456431 -0.3842125 11.02209
vt 0.05284772 0.2210509
vn 0.9343385 -0.2494143 0.2545664

v -0.002759804 -2.449162 12.743
vt 0.01574489 0.136196
vn 0.8612016 -0.1473297 0.4864421

v 0.4919607 -4.225653 11.3291
vt 0.04794622 0.06991716
vn 0.9450035 -0.2125726 0.2485585

v 1.422102 -0.8307438 10.71059
vt 0.0600618 0.2119923
vn 0.9450035 -0.2125726 0.2485585

v -1.959808 0.5879377 -1.239947
vt 0.315044 0.276208
vn -0.9945416 -0.09914418 0.03251971

v 0.4579984 -4.337892 -7.415494
vt 0.4480637 0.06991716
vn 0.9646699 -0.2633886 -0.006194165

v 0.7664052 -2.965685 -8.91268
vt 0.4794113 0.1267679
vn 0.9646699 -0.2633886 -0.006194165

v 0.9904805 -1.711199 -1.226701
vt 0.3138492 0.1755316
vn 0.9646699 -0.2633886 -0.006194165

v 1.440039 -0.5441437 -1.226701
vt 0.3146107 0.2261896
vn 0.9646699 -0.2633886 -0.006194165

v 1.954291 0.5879377 -1.239947
vt 0.315044 0.276208
vn 0.9646699 -0.2633886 -0.006194165

v -3.026723 -0.9078693 11.8427
vt 0.105141 0.4082545
vn -0.2050495 -0.07013805 0.9762354

v -5.130981 -2.055052 11.31662
vt 0.1905327 0.38004
vn -0.2050495 -0.07013805 0.9762354

v -4.867924 -2.847446 11.31662
vt 0.1908437 0.3208615
vn -0.2050495 -0.07013805 0.9762354

v -2.499526 -2.425798 11.8427
vt 0.09608036 0.2946546
vn -0.2050495 -0.07013805 0.9762354

v 3.021204 -0.9078693 11.8427
vt 0.09648774 0.4081103
vn 0.9356358 -0.3382717 0.1007862

v 2.787775 -1.202505 13.22134
vt 0.04780146 0.3838222
vn 0.9356358 -0.3382717 0.1007862

v 2.459215 -2.051535 13.22134
vt 0.0474075 0.3195577
vn 0.9356358 -0.3382717 0.1007862

v 2.494009 -2.425798 11.8427
vt 0.1049865 0.2943468
vn 0.9356358 -0.3382717 0.1007862

# 220 vertice(s).

f 1/1/1 2/2/2 3/3/3
f 1/1/1 3/3/3 4/4/4
f 5/5/5 6/6/6 7/7/7
f 5/5/5 7/7/7 8/8/8
f 9/9/9 10/10/10 11/11/11
f 12/12/12 13/13/13 14/14/14
f 12/12/12 14/14/14 15/15/15
f 16/16/16 17/17/17 18/18/18
f 16/16/16 18/18/18 19/19/19
f 20/20/20 21/21/21 22/22/22
f 20/20/20 22/22/22 23/23/23
f 24/24/24 25/25/25 26/26/26
f 27/27/27 28/28/28 29/29/29
f 27/27/27 29/29/29 30/30/30
f 31/31/31 32/32/32 33/33/33
f 34/34/34 35/35/35 36/36/36
f 37/37/37 38/38/38 39/39/39
f 40/40/40 41/41/41 42/42/42
f 40/40/40 42/42/42 43/43/43
f 40/40/40 43/43/43 44/44/44
f 40/40/40 44/44/44 45/45/45
f 46/46/46 47/47/47 48/48/48
f 46/46/46 48/48/48 49/49/49
f 50/50/50 51/51/51 52/52/52
f 50/50/50 52/52/52 53/53/53
f 54/54/54 55/55/55 56/56/56
f 54/54/54 56/56/56 57/57/57
f 47/47/47 58/58/58 48/48/48
f 59/59/59 60/60/60 61/61/61
f 35/35/35 62/62/62 36/36/36
f 63/63/63 64/64/64 65/65/65
f 63/63/63 65/65/65 66/66/66
f 67/67/67 33/33/33 32/32/32
f 68/68/68 62/62/62 35/35/35
f 69/69/69 70/70/70 71/71/71
f 72/72/72 73/73/73 74/74/74
f 75/75/75 76/76/76 77/77/77
f 60/60/60 78/78/78 61/61/61
f 79/79/79 80/80/80 81/81/81
f 82/82/82 83/83/83 84/84/84
f 85/85/85 86/86/86 87/87/87
f 88/88/88 89/89/89 90/90/90
f 91/91/91 92/92/92 93/93/93
f 94/94/94 95/95/95 96/96/96
f 94/94/94 96/96/96 97/97/97
f 98/98/98 99/99/99 100/100/100
f 98/98/98 100/100/100 101/101/101
f 102/102/102 103/103/103 104/104/104
f 102/102/102 104/104/104 105/105/105
f 106/106/106 107/107/107 108/108/108
f 106/106/106 108/108/108 109/109/109
f 110/110/110 103/103/103 102/102/102
f 110/110/110 102/102/102 111/111/111
f 112/112/112 113/113/113 114/114/114
f 112/112/112 114/114/114 115/115/115
f 116/116/116 117/117/117 118/118/118
f 119/119/119 120/120/120 121/121/121
f 119/119/119 121/121/121 122/122/122
f 119/119/119 122/122/122 123/123/123
f 122/122/122 124/124/124 123/123/123
f 125/125/125 126/126/126 127/127/127
f 125/125/125 127/127/127 128/128/128
f 124/124/124 122/122/122 129/129/129
f 130/130/130 115/115/115 114/114/114
f 131/131/131 132/132/132 133/133/133
f 131/131/131 133/133/133 134/134/134
f 135/135/135 136/136/136 137/137/137
f 135/135/135 137/137/137 138/138/138
f 139/139/139 140/140/140 141/141/141
f 139/139/139 141/141/141 142/142/142
f 143/143/143 144/144/144 145/145/145
f 143/143/143 145/145/145 146/146/146
f 147/147/147 148/148/148 149/149/149
f 147/147/147 149/149/149 150/150/150
f 151/151/151 152/152/152 147/147/147
f 151/151/151 147/147/147 150/150/150
f 153/153/153 154/154/154 155/155/155
f 156/156/156 157/157/157 155/155/155
f 156/156/156 155/155/155 158/158/158
f 156/156/156 158/158/158 159/159/159
f 160/160/160 161/161/161 162/162/162
f 160/160/160 162/162/162 163/163/163
f 164/164/164 165/165/165 166/166/166
f 164/164/164 166/166/166 167/167/167
f 168/168/168 169/169/169 170/170/170
f 155/155/155 157/157/157 153/153/153
f 144/144/144 171/171/171 145/145/145
f 172/172/172 173/173/173 174/174/174
f 172/172/172 174/174/174 175/175/175
f 176/176/176 177/177/177 178/178/178
f 176/176/176 178/178/178 179/179/179
f 180/180/180 181/181/181 182/182/182
f 180/180/180 182/182/182 183/183/183
f 184/184/184 185/185/185 186/186/186
f 187/187/187 188/188/188 189/189/189
f 188/188/188 190/190/190 189/189/189
f 191/191/191 192/192/192 193/193/193
f 191/191/191 193/193/193 194/194/194
f 191/191/191 194/194/194 195/195/195
f 191/191/191 195/195/195 196/196/196
f 191/191/191 196/196/196 197/197/197
f 198/198/198 191/191/191 197/197/197
f 199/199/199 200/200/200 201/201/201
f 200/200/200 202/202/202 203/203/203
f 201/201/201 200/200/200 203/203/203
f 204/204/204 205/205/205 206/206/206
f 189/189/189 190/190/190 207/207/207
f 206/206/206 205/205/205 208/208/208
f 206/206/206 208/208/208 209/209/209
f 206/206/206 209/209/209 210/210/210
f 206/206/206 210/210/210 211/211/211
f 206/206/206 211/211/211 212/212/212
f 213/213/213 214/214/214 215/215/215
f 213/213/213 215/215/215 216/216/216
f 217/217/217 218/218/218 219/219/219
f 217/217/217 219/219/219 220/220/220
# 348 indices; 116 primitives.

# 1 primitive groups.

# 1 parts.

