mtllib LOD1.mtl

g TurretUV
usemtl TurretUV

v 0.870602 1.08685 -9.59603
vt 0.3550497 0.4478545
vn 0.168367 0.8953201 -0.4123766

v -0.6928642 1.08685 -9.59603
vt 0.3550479 0.5450785
vn -0.5448813 0.6689434 -0.5055878

v 0.5839651 0.5868577 -0.03075102
vt 0.850818 0.4516584
vn 0.1143767 0.9231462 0.3670411

v -0.4062319 0.5868577 -0.03075102
vt 0.8508127 0.5413296
vn -0.3758478 0.4614232 0.8036337

v -1.201134 -1.367913 -9.59603
vt 0.459813 0.5722868
vn -0.4397791 -0.8070871 -0.3939604

v -0.6928642 1.08685 -9.59603
vt 0.3269107 0.5998049
vn -0.5448813 0.6689434 -0.5055878

v 1.378871 -1.367913 -9.59603
vt 0.459813 0.7119695
vn -5.156693E-08 -0.4544848 -0.8907545

v 0.870602 1.08685 -9.59603
vt 0.3269107 0.6844516
vn 0.168367 0.8953201 -0.4123766

v 1.378871 -1.367913 -9.59603
vt 0.3556404 0.2427095
vn -5.156693E-08 -0.4544848 -0.8907545

v 0.9058691 -0.9678251 -0.03075102
vt 0.8502169 0.2505713
vn 3.084886E-09 -0.6921739 0.7217308

v -1.201134 -1.367913 -9.59603
vt 0.355107 0.4031459
vn -0.4397791 -0.8070871 -0.3939604

v -0.7281363 -0.9678251 -0.03075102
vt 0.8497299 0.3985445
vn -0.8389959 -0.2546449 0.4808764

v -1.201134 -1.367913 -9.59603
vt 0.355176 0.4040777
vn -0.4397791 -0.8070871 -0.3939604

v -0.7281363 -0.9678251 -0.03075102
vt 0.8497946 0.3960066
vn -0.8389959 -0.2546449 0.4808764

v -0.6928642 1.08685 -9.59603
vt 0.3553538 0.2415749
vn -0.5448813 0.6689434 -0.5055878

v -0.4062319 0.5868577 -0.03075102
vt 0.8499557 0.2487013
vn -0.3758478 0.4614232 0.8036337

v 0.9058691 -0.9678251 -0.03075102
vt 0.8919652 0.8462545
vn 0.6956734 -0.7154723 0.06432713

v 1.378871 -1.367913 -9.59603
vt 0.5664163 0.845632
vn 0.6956734 -0.7154723 0.06432713

v 2.637911 0.1726102 -6.077745
vt 0.7292081 0.7058398
vn 0.6956734 -0.7154723 0.06432713

v 1.378871 -1.367913 -9.59603
vt 0.4908726 0.8019419
vn 0.8965675 0.185638 -0.4021261

v 0.870602 1.08685 -9.59603
vt 0.4913884 0.6082833
vn 0.8965675 0.185638 -0.4021261

v 2.637911 0.1726102 -6.077745
vt 0.7292081 0.7058398
vn 0.8965675 0.185638 -0.4021261

v 0.870602 1.08685 -9.59603
vt 0.5674316 0.5870872
vn 0.168367 0.8953201 -0.4123766

v 0.5839651 0.5868577 -0.03075102
vt 0.8922023 0.5879553
vn 0.1143767 0.9231462 0.3670411

v 2.637911 0.1726102 -6.077745
vt 0.7292081 0.7058398
vn 0.3626869 0.9300109 0.05948156

v 0.5839651 0.5868577 -0.03075102
vt 0.9675457 0.6097142
vn 0.9329883 0.1931794 0.3036688

v 0.9058691 -0.9678251 -0.03075102
vt 0.9670269 0.803373
vn 0.9329883 0.1931794 0.3036688

v 2.637911 0.1726102 -6.077745
vt 0.7292081 0.7058398
vn 0.9329883 0.1931794 0.3036688

v -0.7281363 -0.9678251 -0.03075102
vt 0.01025655 0.3433585
vn -0.8389959 -0.2546449 0.4808764

v 0.9058691 -0.9678251 -0.03075102
vt 0.01025655 0.4581145
vn 3.084886E-09 -0.6921739 0.7217308

v -0.4062319 0.5868577 -0.03075102
vt 0.1194418 0.3659656
vn -0.3758478 0.4614232 0.8036337

v 0.5839651 0.5868577 -0.03075102
vt 0.1194418 0.4355071
vn 0.1143767 0.9231462 0.3670411

# 32 vertice(s).

f 1/1/1 2/2/2 3/3/3
f 4/4/4 3/3/3 2/2/2
f 5/5/5 6/6/6 7/7/7
f 6/6/6 8/8/8 7/7/7
f 9/9/9 10/10/10 11/11/11
f 11/11/11 10/10/10 12/12/12
f 13/13/13 14/14/14 15/15/15
f 14/14/14 16/16/16 15/15/15
f 17/17/17 18/18/18 19/19/19
f 20/20/20 21/21/21 22/22/22
f 23/23/23 24/24/24 25/25/25
f 26/26/26 27/27/27 28/28/28
f 29/29/29 30/30/30 31/31/31
f 32/32/32 31/31/31 30/30/30
# 42 indices; 14 primitives.

# 1 primitive groups.

# 1 parts.

