mtllib LOD1.mtl

g TurretUV
usemtl TurretUV

v -1.860382 3.62017 5.682526
vt 0.01073041 0.7555776
vn -0.9961729 -0.0726574 0.0485847

v -1.860386 3.620171 -3.02265
vt 0.01073041 0.4808903
vn -0.9904132 0.1381367 4.904139E-07

v -2.139162 1.621403 -3.02265
vt 0.06929506 0.6182338
vn -0.9961729 -0.0726574 0.0485847

v 2.145927 1.621403 -3.022647
vt 0.256141 0.6659566
vn 0 -1 -5.348174E-10

v 1.281191 1.621403 5.682524
vt 0.1175359 0.6386925
vn 0 -1 4.69066E-09

v -2.139162 1.621403 -3.02265
vt 0.2563229 0.666063
vn 0 -1 4.69066E-09

v -1.274427 1.621403 5.682526
vt 0.1176422 0.6391838
vn 0 -1 9.916138E-09

v -1.860382 3.62017 5.682526
vt 0.2886021 0.07639229
vn 1.652822E-07 7.500327E-08 1

v -1.274427 1.621403 5.682526
vt 0.2212191 0.1026045
vn 3.957701E-07 -2.214012E-08 1

v 0.003384541 3.62017 5.682525
vt 0.2887563 0.1593689
vn 3.187305E-07 -1.192832E-07 1

v 1.281191 1.621403 5.682524
vt 0.2214306 0.1025922
vn 3.954547E-07 -2.164265E-07 1

v 1.867151 3.62017 5.682525
vt 0.2889105 0.07663012
vn 1.646513E-07 -3.135695E-07 1

v 1.281191 1.621403 5.682524
vt 0.1487906 0.7976876
vn 0.9552834 -0.2800514 0.09489389

v 2.145927 1.621403 -3.022647
vt 0.2500853 0.7719432
vn 0.996173 -0.07265732 0.04858424

v 1.867151 3.62017 5.682525
vt 0.1654397 0.7382233
vn 0.996173 -0.07265732 0.04858424

v 1.867146 3.620171 -3.022647
vt 0.01059871 0.480916
vn 0.9904128 0.1381392 -5.650077E-07

v 1.867151 3.62017 5.682525
vt 0.01059871 0.7556031
vn 0.996173 -0.07265732 0.04858424

v 2.145927 1.621403 -3.022647
vt 0.0691634 0.6182601
vn 0.996173 -0.07265732 0.04858424

v 1.86715 7.118263 -2.979523
vt 0.2794054 0.8768638
vn 5.362248E-07 0.7207237 -0.6932225

v 0.003384782 4.346213 -5.861546
vt 0.02425894 0.9524875
vn 1.7755E-07 0.7207237 -0.6932225

v 0.003384004 7.118263 -2.979524
vt 0.2794054 0.9910744
vn 1.7755E-07 0.7207237 -0.6932225

v -1.860382 7.118261 -2.979526
vt 0.2794051 0.8770621
vn -1.811248E-07 0.7207237 -0.6932225

v 0.003384782 4.346213 -5.861546
vt 0.163516 0.8433107
vn 4.995416E-07 -0.7214546 -0.6924617

v 2.145927 1.621403 -3.022647
vt 0.0267425 0.8933493
vn 4.995416E-07 -0.7214546 -0.6924617

v -2.139162 1.621403 -3.02265
vt 0.02647989 0.8927935
vn 4.995416E-07 -0.7214546 -0.6924617

v -2.139162 1.621403 -3.02265
vt 0.06870732 0.4547603
vn -0.8436797 0.1176712 -0.523792

v -1.860386 3.620171 -3.02265
vt 0.1361391 0.4545536
vn -0.8415595 0.06231214 -0.5365583

v 0.003384782 4.346213 -5.861546
vt 0.1688598 0.5842771
vn -0.8415595 0.06231214 -0.5365583

v -1.860382 7.118261 -2.979526
vt 0.2918724 0.4522095
vn -0.8367195 0.006751712 -0.5475903

v 1.867151 3.62017 5.682525
vt 0.1516822 0.1505272
vn 1 -6.111508E-07 -5.751512E-07

v 1.867146 3.620171 -3.022647
vt 0.1354818 0.4540201
vn 1 -8.819067E-07 -3.666575E-07

v 1.867151 7.118261 2.296444
vt 0.2912214 0.2172086
vn 1 -8.819067E-07 -3.666575E-07

v 1.86715 7.118263 -2.979523
vt 0.2912214 0.4521005
vn 1 -1.152662E-06 -1.581639E-07

v 1.86715 7.118263 -2.979523
vt 0.2794054 0.8768638
vn -2.774776E-13 1 3.162892E-07

v 0.003384004 7.118263 -2.979524
vt 0.2794054 0.9910744
vn -1.618619E-13 1 3.131155E-07

v 1.867151 7.118261 2.296444
vt 0.6810589 0.8768641
vn -1.618619E-13 1 3.131155E-07

v 0.003384541 7.118261 2.296444
vt 0.6810589 0.9910746
vn -4.624625E-14 1 3.099417E-07

v 1.867151 3.62017 5.682525
vt 0.8526555 0.8768641
vn 2.468455E-07 0.6955096 0.7185168

v 1.867151 7.118261 2.296444
vt 0.6810589 0.8768641
vn 1.051028E-07 0.6955096 0.7185168

v 0.003384541 3.62017 5.682525
vt 0.8526555 0.9910746
vn 1.051028E-07 0.6955096 0.7185168

v 0.003384541 7.118261 2.296444
vt 0.6810589 0.9910746
vn -3.663987E-08 0.6955097 0.7185168

v -1.860382 3.62017 5.682526
vt 0.1515138 0.1510175
vn -1 4.854363E-07 4.929865E-07

v -1.860382 7.118261 2.296444
vt 0.2912347 0.2173189
vn -1 8.157197E-07 2.577906E-07

v -1.860386 3.620171 -3.02265
vt 0.1361391 0.4545536
vn -1 8.157197E-07 2.577906E-07

v -1.860382 7.118261 -2.979526
vt 0.2918724 0.4522095
vn -1 1.146003E-06 2.259464E-08

v 2.145927 1.621403 -3.022647
vt 0.06805003 0.4540421
vn 0.8436811 0.1176736 -0.5237892

v 0.003384782 4.346213 -5.861546
vt 0.1678484 0.5838321
vn 0.841561 0.0623123 -0.5365559

v 1.867146 3.620171 -3.022647
vt 0.1354818 0.4540201
vn 0.841561 0.0623123 -0.5365559

v 1.86715 7.118263 -2.979523
vt 0.2912214 0.4521005
vn 0.8367208 0.006749611 -0.5475883

v -2.139162 1.621403 -3.02265
vt 0.2501103 0.7719723
vn -0.9961729 -0.0726574 0.0485847

v -1.274427 1.621403 5.682526
vt 0.1488226 0.7977463
vn -0.9552842 -0.2800491 0.09489381

v -1.860382 3.62017 5.682526
vt 0.1654533 0.7382752
vn -0.9961729 -0.0726574 0.0485847

v 0.003384541 7.118261 2.296444
vt 0.6810589 0.9912732
vn 0 1 3.899275E-07

v 0.003384004 7.118263 -2.979524
vt 0.2794054 0.9912724
vn -5.116921E-07 1 2.095595E-07

v -1.860382 7.118261 2.296444
vt 0.6810589 0.8770624
vn -5.116921E-07 1 2.095595E-07

v -1.860382 7.118261 -2.979526
vt 0.2794051 0.8770621
vn -1.023384E-06 1 2.919145E-08

v 0.003384541 3.62017 5.682525
vt 0.8526555 0.9912732
vn 1.285547E-07 0.6955097 0.7185168

v 0.003384541 7.118261 2.296444
vt 0.6810589 0.9912732
vn 1.051028E-07 0.6955097 0.7185168

v -1.860382 3.62017 5.682526
vt 0.8526555 0.8770624
vn 1.051028E-07 0.6955097 0.7185168

v -1.860382 7.118261 2.296444
vt 0.6810589 0.8770624
vn 8.165095E-08 0.6955097 0.7185167

# 60 vertice(s).

f 1/1/1 2/2/2 3/3/3
f 4/4/4 5/5/5 6/6/6
f 5/5/5 7/7/7 6/6/6
f 8/8/8 9/9/9 10/10/10
f 9/9/9 11/11/11 10/10/10
f 10/10/10 11/11/11 12/12/12
f 13/13/13 14/14/14 15/15/15
f 16/16/16 17/17/17 18/18/18
f 19/19/19 20/20/20 21/21/21
f 21/21/21 20/20/20 22/22/22
f 23/23/23 24/24/24 25/25/25
f 26/26/26 27/27/27 28/28/28
f 28/28/28 27/27/27 29/29/29
f 30/30/30 31/31/31 32/32/32
f 31/31/31 33/33/33 32/32/32
f 34/34/34 35/35/35 36/36/36
f 35/35/35 37/37/37 36/36/36
f 38/38/38 39/39/39 40/40/40
f 39/39/39 41/41/41 40/40/40
f 42/42/42 43/43/43 44/44/44
f 44/44/44 43/43/43 45/45/45
f 46/46/46 47/47/47 48/48/48
f 47/47/47 49/49/49 48/48/48
f 50/50/50 51/51/51 52/52/52
f 53/53/53 54/54/54 55/55/55
f 54/54/54 56/56/56 55/55/55
f 57/57/57 58/58/58 59/59/59
f 58/58/58 60/60/60 59/59/59
# 84 indices; 28 primitives.

# 1 primitive groups.

# 1 parts.

