mtllib LOD2.mtl

g Hgn_Interceptor_LOD2
usemtl Hgn_Interceptor_LOD2

v -1.997407 1.597139 -8.790301
vt 0.3149541 0.0617786
vn -0.3726482 0.9255016 -0.06767597

v -7.786705 -0.9358325 -6.502644
vt 0.1844241 0.1357346
vn -0.4154365 0.9094096 0.01966498

v -2.263891 1.976735 -3.955191
vt 0.3071094 0.2180892
vn -0.4038828 0.9148058 -0.00300342

v -1.997407 1.597139 -8.790301
vt 0.7085662 0.826252
vn -0.4501443 0.07049272 -0.8901691

v -3.146264 -1.132652 -8.459261
vt 0.6693881 0.9190533
vn -0.4501443 0.07049272 -0.8901691

v -7.786705 -0.9358325 -6.502644
vt 0.5462816 0.9054495
vn -0.4501443 0.07049272 -0.8901691

v 2.174361 1.441113 1.977284
vt 0.4377622 0.4098757
vn -0.7623407 0.6463434 0.0328154

v 1.226487 -0.2429469 6.838955
vt 0.4098588 0.567045
vn -0.7623407 0.6463434 0.0328154

v 1.994312 0.3505574 13.48125
vt 0.4324619 0.7817786
vn -0.7623407 0.6463434 0.0328154

v 7.786706 -0.9358324 -6.502644
vt 0.9934681 0.692696
vn 0.05163977 -0.9970294 0.05714674

v 1.994312 0.3505574 13.48125
vt 0.8373422 -0.02683544
vn 0.05163977 -0.9970294 0.05714674

v 1.226487 -0.2429469 6.838955
vt 0.8121679 0.2123241
vn 0.05163977 -0.9970294 0.05714674

v 7.786706 -0.9358324 -6.502644
vt 0.5630831 0.1357346
vn 0.4154153 0.9094191 0.01967255

v 1.997407 1.597139 -8.790301
vt 0.432553 0.0617786
vn 0.3726481 0.9255016 -0.06767596

v 2.26389 1.976735 -3.955191
vt 0.4403978 0.2180892
vn 0.4038929 0.9148014 -0.002981517

v -7.786705 -0.9358325 -6.502644
vt 0.5504434 0.692696
vn -0.04957471 -0.9983921 -0.02748767

v -3.146264 -1.132652 -8.459261
vt 0.668801 0.7631451
vn -0.04957471 -0.9983921 -0.02748767

v -1.766949 -1.68061 3.350811
vt 0.7140237 0.3379168
vn -0.04957471 -0.9983921 -0.02748767

v -1.994312 0.3505574 13.48125
vt 0.3150453 0.7817786
vn -0.4376997 0.8967716 0.06495988

v -2.175098 1.441113 1.977284
vt 0.3097233 0.4098757
vn -0.4354058 0.8979946 0.0634622

v -1.210737 -0.2389056 6.838955
vt 0.3381121 0.567045
vn 0.7553543 0.6544647 0.03340258

v -2.175098 1.441113 1.977284
vt 0.3097233 0.4098757
vn 0.7553543 0.6544647 0.03340258

v -1.994312 0.3505574 13.48125
vt 0.3150453 0.7817786
vn 0.7553543 0.6544647 0.03340258

v 1.994312 0.3505574 13.48125
vt 0.4324619 0.7817786
vn 0.4376176 0.8968132 0.0649383

v 2.174361 1.441113 1.977284
vt 0.4377622 0.4098757
vn 0.4353742 0.8980091 0.06347349

v 2.26389 1.976735 -3.955191
vt 0.4403978 0.2180892
vn -4.051932E-10 0.9997194 0.0236895

v 1.997407 1.597139 -8.790301
vt 0.432553 0.0617786
vn 4.06596E-09 0.9985061 -0.05464108

v -2.263891 1.976735 -3.955191
vt 0.3071094 0.2180892
vn -4.051649E-10 0.9998795 -0.01552045

v -1.997407 1.597139 -8.790301
vt 0.3149541 0.0617786
vn 0 0.9985061 -0.05464108

v -2.175098 1.441113 1.977284
vt 0.3097233 0.4098757
vn -4.673711E-09 0.9980257 0.06280844

v 2.174361 1.441113 1.977284
vt 0.4377622 0.4098757
vn 0 0.9980257 0.06280844

v 3.146266 -1.132652 -8.459261
vt 0.8839753 0.9190533
vn 0 -0.1714049 -0.9852006

v -3.146264 -1.132652 -8.459261
vt 0.6693881 0.9190533
vn 0 -0.1714049 -0.9852006

v 1.997407 1.597139 -8.790301
vt 0.8447971 0.826252
vn 0 -0.1714049 -0.9852006

v -1.997407 1.597139 -8.790301
vt 0.7085662 0.826252
vn 0 -0.1714049 -0.9852006

v 3.146266 -1.132652 -8.459261
vt 0.8839753 0.9190533
vn 0.4501443 0.07049322 -0.890169

v 1.997407 1.597139 -8.790301
vt 0.8447971 0.826252
vn 0.4501443 0.07049322 -0.890169

v 7.786706 -0.9358324 -6.502644
vt 1.007082 0.9054495
vn 0.4501443 0.07049322 -0.890169

v 2.174361 1.441113 1.977284
vt 0.4377622 0.4098757
vn 0 0.9720668 0.2347043

v -2.175098 1.441113 1.977284
vt 0.3097233 0.4098757
vn 0.0006776265 0.9721563 0.2343327

v 1.226487 -0.2429469 6.838955
vt 0.4098588 0.567045
vn 0.0006776265 0.9721563 0.2343327

v -1.210737 -0.2389056 6.838955
vt 0.3381121 0.567045
vn 0.001355203 0.972245 0.233961

v 3.146266 -1.132652 -8.459261
vt 0.8751106 0.7631451
vn 0 -0.9994802 -0.03223967

v 1.768883 -1.679184 3.350811
vt 0.8299512 0.3379168
vn 0.0001693819 -0.9994783 -0.03229807

v -3.146264 -1.132652 -8.459261
vt 0.668801 0.7631451
vn 0.0001693819 -0.9994783 -0.03229807

v -1.766949 -1.68061 3.350811
vt 0.7140237 0.3379168
vn 0.000338764 -0.9994763 -0.03235646

v -7.786705 -0.9358325 -6.502644
vt 0.5504434 0.692696
vn -0.05009417 -0.9971291 0.05677979

v -1.210737 -0.2389056 6.838955
vt 0.73226 0.2123241
vn -0.05009417 -0.9971291 0.05677979

v -1.994312 0.3505574 13.48125
vt 0.7065693 -0.02683544
vn -0.05009417 -0.9971291 0.05677979

v 7.786706 -0.9358324 -6.502644
vt 0.9934681 0.692696
vn 0.640678 -0.7121552 0.2869958

v 1.226487 -0.2429469 6.838955
vt 0.8121679 0.2123241
vn 0.640678 -0.7121552 0.2869958

v 1.768883 -1.679184 3.350811
vt 0.8299512 0.3379168
vn 0.640678 -0.7121552 0.2869958

v 1.768883 -1.679184 3.350811
vt 0.8299512 0.3379168
vn 0.0003257855 -0.9611852 0.2759039

v 1.226487 -0.2429469 6.838955
vt 0.8121679 0.2123241
vn -0.0005067275 -0.9610278 0.2764511

v -1.766949 -1.68061 3.350811
vt 0.7140237 0.3379168
vn -0.0005067275 -0.9610278 0.2764511

v -1.210737 -0.2389056 6.838955
vt 0.73226 0.2123241
vn -0.001339346 -0.9608696 0.2769981

v -7.786705 -0.9358325 -6.502644
vt 0.5504434 0.692696
vn -0.6444166 -0.7078996 0.2891462

v -1.766949 -1.68061 3.350811
vt 0.7140237 0.3379168
vn -0.6444166 -0.7078996 0.2891462

v -1.210737 -0.2389056 6.838955
vt 0.73226 0.2123241
vn -0.6444166 -0.7078996 0.2891462

v 7.786706 -0.9358324 -6.502644
vt 0.9934681 0.692696
vn 0.04953747 -0.998396 -0.02741414

v 1.768883 -1.679184 3.350811
vt 0.8299512 0.3379168
vn 0.04953747 -0.998396 -0.02741414

v 3.146266 -1.132652 -8.459261
vt 0.8751106 0.7631451
vn 0.04953747 -0.998396 -0.02741414

# 62 vertice(s).

f 1/1/1 2/2/2 3/3/3
f 4/4/4 5/5/5 6/6/6
f 7/7/7 8/8/8 9/9/9
f 10/10/10 11/11/11 12/12/12
f 13/13/13 14/14/14 15/15/15
f 16/16/16 17/17/17 18/18/18
f 19/19/19 20/20/20 2/2/2
f 2/2/2 20/20/20 3/3/3
f 21/21/21 22/22/22 23/23/23
f 24/24/24 13/13/13 25/25/25
f 15/15/15 25/25/25 13/13/13
f 26/26/26 27/27/27 28/28/28
f 27/27/27 29/29/29 28/28/28
f 28/28/28 30/30/30 26/26/26
f 30/30/30 31/31/31 26/26/26
f 32/32/32 33/33/33 34/34/34
f 35/35/35 34/34/34 33/33/33
f 36/36/36 37/37/37 38/38/38
f 39/39/39 40/40/40 41/41/41
f 40/40/40 42/42/42 41/41/41
f 43/43/43 44/44/44 45/45/45
f 44/44/44 46/46/46 45/45/45
f 47/47/47 48/48/48 49/49/49
f 50/50/50 51/51/51 52/52/52
f 53/53/53 54/54/54 55/55/55
f 54/54/54 56/56/56 55/55/55
f 57/57/57 58/58/58 59/59/59
f 60/60/60 61/61/61 62/62/62
# 84 indices; 28 primitives.

# 1 primitive groups.

# 1 parts.

